<mxfile host="app.diagrams.net" modified="2023-03-20T06:52:29.726Z" agent="5.0 (Macintosh; Intel Mac OS X 10_15_7) AppleWebKit/537.36 (KHTML, like Gecko) Chrome/111.0.0.0 Safari/537.36" etag="KW6w6pk52XZpLSRqRVLA" version="20.8.23" type="github" pages="6">
  <diagram id="NWhZimJA6qQcaquK7ZAS" name="brick-online">
    <mxGraphModel dx="2261" dy="771" grid="1" gridSize="10" guides="1" tooltips="1" connect="1" arrows="1" fold="1" page="1" pageScale="1" pageWidth="827" pageHeight="1169" math="0" shadow="0">
      <root>
        <mxCell id="0" />
        <mxCell id="1" parent="0" />
        <mxCell id="JwduhND43qN6gX2zfuCN-1" value="" style="rounded=1;whiteSpace=wrap;html=1;dashed=1;" parent="1" vertex="1">
          <mxGeometry x="40" y="120" width="120" height="360" as="geometry" />
        </mxCell>
        <mxCell id="JwduhND43qN6gX2zfuCN-2" value="" style="rounded=1;whiteSpace=wrap;html=1;dashed=1;" parent="1" vertex="1">
          <mxGeometry x="200" y="120" width="160" height="360" as="geometry" />
        </mxCell>
        <mxCell id="JwduhND43qN6gX2zfuCN-3" value="" style="rounded=1;whiteSpace=wrap;html=1;dashed=1;" parent="1" vertex="1">
          <mxGeometry x="400" y="119" width="280" height="360" as="geometry" />
        </mxCell>
        <mxCell id="JwduhND43qN6gX2zfuCN-38" value="" style="edgeStyle=orthogonalEdgeStyle;rounded=0;orthogonalLoop=1;jettySize=auto;html=1;strokeColor=#FF0000;" parent="1" source="JwduhND43qN6gX2zfuCN-4" target="JwduhND43qN6gX2zfuCN-5" edge="1">
          <mxGeometry relative="1" as="geometry" />
        </mxCell>
        <mxCell id="JwduhND43qN6gX2zfuCN-4" value="aps-sdk" style="html=1;whiteSpace=wrap;aspect=fixed;shape=isoRectangle;strokeColor=#FF0000;strokeWidth=2;sketch=1;shadow=1;" parent="1" vertex="1">
          <mxGeometry x="700" y="340" width="90" height="54" as="geometry" />
        </mxCell>
        <mxCell id="JwduhND43qN6gX2zfuCN-5" value="" style="rounded=1;whiteSpace=wrap;html=1;dashed=1;strokeColor=#FF0000;" parent="1" vertex="1">
          <mxGeometry x="840" y="310" width="120" height="170" as="geometry" />
        </mxCell>
        <mxCell id="JwduhND43qN6gX2zfuCN-6" value="" style="rounded=1;whiteSpace=wrap;html=1;dashed=1;" parent="1" vertex="1">
          <mxGeometry x="840" y="120" width="120" height="170" as="geometry" />
        </mxCell>
        <mxCell id="JwduhND43qN6gX2zfuCN-18" style="edgeStyle=orthogonalEdgeStyle;rounded=0;orthogonalLoop=1;jettySize=auto;html=1;exitX=1;exitY=0.5;exitDx=0;exitDy=0;entryX=0;entryY=0.5;entryDx=0;entryDy=0;" parent="1" source="JwduhND43qN6gX2zfuCN-8" target="JwduhND43qN6gX2zfuCN-9" edge="1">
          <mxGeometry relative="1" as="geometry" />
        </mxCell>
        <mxCell id="JwduhND43qN6gX2zfuCN-54" value="2" style="edgeLabel;html=1;align=center;verticalAlign=middle;resizable=0;points=[];" parent="JwduhND43qN6gX2zfuCN-18" vertex="1" connectable="0">
          <mxGeometry x="0.075" y="2" relative="1" as="geometry">
            <mxPoint as="offset" />
          </mxGeometry>
        </mxCell>
        <mxCell id="JwduhND43qN6gX2zfuCN-8" value="init" style="rounded=1;whiteSpace=wrap;html=1;" parent="1" vertex="1">
          <mxGeometry x="220" y="150" width="120" height="40" as="geometry" />
        </mxCell>
        <mxCell id="JwduhND43qN6gX2zfuCN-20" value="3" style="edgeStyle=orthogonalEdgeStyle;rounded=0;orthogonalLoop=1;jettySize=auto;html=1;exitX=0.75;exitY=1;exitDx=0;exitDy=0;entryX=0.5;entryY=0;entryDx=0;entryDy=0;" parent="1" source="JwduhND43qN6gX2zfuCN-9" edge="1">
          <mxGeometry relative="1" as="geometry">
            <mxPoint x="620" y="210" as="targetPoint" />
          </mxGeometry>
        </mxCell>
        <mxCell id="JwduhND43qN6gX2zfuCN-21" style="edgeStyle=orthogonalEdgeStyle;rounded=0;orthogonalLoop=1;jettySize=auto;html=1;exitX=0.5;exitY=1;exitDx=0;exitDy=0;entryX=0.5;entryY=0;entryDx=0;entryDy=0;" parent="1" source="JwduhND43qN6gX2zfuCN-9" target="JwduhND43qN6gX2zfuCN-14" edge="1">
          <mxGeometry relative="1" as="geometry">
            <Array as="points">
              <mxPoint x="545" y="200" />
              <mxPoint x="280" y="200" />
            </Array>
          </mxGeometry>
        </mxCell>
        <mxCell id="JwduhND43qN6gX2zfuCN-55" value="4" style="edgeLabel;html=1;align=center;verticalAlign=middle;resizable=0;points=[];" parent="JwduhND43qN6gX2zfuCN-21" vertex="1" connectable="0">
          <mxGeometry x="0.1149" y="-1" relative="1" as="geometry">
            <mxPoint as="offset" />
          </mxGeometry>
        </mxCell>
        <mxCell id="JwduhND43qN6gX2zfuCN-9" value="xak-matcher" style="rounded=1;whiteSpace=wrap;html=1;sketch=1;strokeColor=#FFD966;strokeWidth=2;" parent="1" vertex="1">
          <mxGeometry x="420" y="150" width="250" height="40" as="geometry" />
        </mxCell>
        <mxCell id="JwduhND43qN6gX2zfuCN-46" style="edgeStyle=orthogonalEdgeStyle;rounded=0;orthogonalLoop=1;jettySize=auto;html=1;exitX=1;exitY=0.5;exitDx=0;exitDy=0;entryX=0;entryY=0.5;entryDx=0;entryDy=0;strokeColor=#FFD966;" parent="1" source="JwduhND43qN6gX2zfuCN-10" target="JwduhND43qN6gX2zfuCN-42" edge="1">
          <mxGeometry relative="1" as="geometry" />
        </mxCell>
        <mxCell id="JwduhND43qN6gX2zfuCN-10" value="seckill-init" style="rounded=1;whiteSpace=wrap;html=1;sketch=1;strokeColor=#FFD966;strokeWidth=2;" parent="1" vertex="1">
          <mxGeometry x="420" y="219" width="110" height="40" as="geometry" />
        </mxCell>
        <mxCell id="JwduhND43qN6gX2zfuCN-47" style="edgeStyle=orthogonalEdgeStyle;rounded=0;orthogonalLoop=1;jettySize=auto;html=1;exitX=1;exitY=0.5;exitDx=0;exitDy=0;entryX=0;entryY=0.5;entryDx=0;entryDy=0;strokeColor=#FFD966;" parent="1" source="JwduhND43qN6gX2zfuCN-11" target="JwduhND43qN6gX2zfuCN-42" edge="1">
          <mxGeometry relative="1" as="geometry" />
        </mxCell>
        <mxCell id="JwduhND43qN6gX2zfuCN-11" value="assist-init" style="rounded=1;whiteSpace=wrap;html=1;sketch=1;strokeColor=#FFD966;strokeWidth=2;" parent="1" vertex="1">
          <mxGeometry x="420" y="291" width="110" height="40" as="geometry" />
        </mxCell>
        <mxCell id="JwduhND43qN6gX2zfuCN-48" style="edgeStyle=orthogonalEdgeStyle;rounded=0;orthogonalLoop=1;jettySize=auto;html=1;exitX=1;exitY=0.5;exitDx=0;exitDy=0;entryX=0;entryY=0.5;entryDx=0;entryDy=0;strokeColor=#FFD966;" parent="1" source="JwduhND43qN6gX2zfuCN-12" target="JwduhND43qN6gX2zfuCN-42" edge="1">
          <mxGeometry relative="1" as="geometry" />
        </mxCell>
        <mxCell id="QOfSzFieqDrKww0oyRNk-4" value="5" style="edgeLabel;html=1;align=center;verticalAlign=middle;resizable=0;points=[];fontSize=12;" parent="JwduhND43qN6gX2zfuCN-48" vertex="1" connectable="0">
          <mxGeometry x="-0.3082" y="-1" relative="1" as="geometry">
            <mxPoint as="offset" />
          </mxGeometry>
        </mxCell>
        <mxCell id="JwduhND43qN6gX2zfuCN-12" value="lottery-init" style="rounded=1;whiteSpace=wrap;html=1;sketch=1;strokeColor=#FFD966;strokeWidth=2;" parent="1" vertex="1">
          <mxGeometry x="420" y="360" width="110" height="40" as="geometry" />
        </mxCell>
        <mxCell id="QOfSzFieqDrKww0oyRNk-3" style="edgeStyle=orthogonalEdgeStyle;rounded=0;orthogonalLoop=1;jettySize=auto;html=1;exitX=1;exitY=0.5;exitDx=0;exitDy=0;entryX=0.5;entryY=1;entryDx=0;entryDy=0;fontSize=12;endSize=6;strokeColor=#FF0000;" parent="1" source="JwduhND43qN6gX2zfuCN-13" target="JwduhND43qN6gX2zfuCN-42" edge="1">
          <mxGeometry relative="1" as="geometry" />
        </mxCell>
        <mxCell id="QOfSzFieqDrKww0oyRNk-5" value="5" style="edgeLabel;html=1;align=center;verticalAlign=middle;resizable=0;points=[];fontSize=12;" parent="QOfSzFieqDrKww0oyRNk-3" vertex="1" connectable="0">
          <mxGeometry x="0.1354" y="-1" relative="1" as="geometry">
            <mxPoint as="offset" />
          </mxGeometry>
        </mxCell>
        <mxCell id="JwduhND43qN6gX2zfuCN-13" value="expand-init" style="rounded=1;whiteSpace=wrap;html=1;strokeColor=#FF0000;sketch=1;" parent="1" vertex="1">
          <mxGeometry x="420" y="430" width="110" height="40" as="geometry" />
        </mxCell>
        <mxCell id="JwduhND43qN6gX2zfuCN-22" style="edgeStyle=orthogonalEdgeStyle;rounded=0;orthogonalLoop=1;jettySize=auto;html=1;exitX=1;exitY=0.5;exitDx=0;exitDy=0;entryX=0;entryY=0.5;entryDx=0;entryDy=0;" parent="1" source="JwduhND43qN6gX2zfuCN-14" target="JwduhND43qN6gX2zfuCN-10" edge="1">
          <mxGeometry relative="1" as="geometry" />
        </mxCell>
        <mxCell id="JwduhND43qN6gX2zfuCN-23" style="edgeStyle=orthogonalEdgeStyle;rounded=0;orthogonalLoop=1;jettySize=auto;html=1;exitX=1;exitY=0.5;exitDx=0;exitDy=0;entryX=0;entryY=0.5;entryDx=0;entryDy=0;" parent="1" source="JwduhND43qN6gX2zfuCN-14" target="JwduhND43qN6gX2zfuCN-11" edge="1">
          <mxGeometry relative="1" as="geometry" />
        </mxCell>
        <mxCell id="JwduhND43qN6gX2zfuCN-24" style="edgeStyle=orthogonalEdgeStyle;rounded=0;orthogonalLoop=1;jettySize=auto;html=1;exitX=1;exitY=0.5;exitDx=0;exitDy=0;entryX=0;entryY=0.5;entryDx=0;entryDy=0;" parent="1" source="JwduhND43qN6gX2zfuCN-14" target="JwduhND43qN6gX2zfuCN-12" edge="1">
          <mxGeometry relative="1" as="geometry" />
        </mxCell>
        <mxCell id="JwduhND43qN6gX2zfuCN-25" style="edgeStyle=orthogonalEdgeStyle;rounded=0;orthogonalLoop=1;jettySize=auto;html=1;exitX=1;exitY=0.5;exitDx=0;exitDy=0;entryX=0;entryY=0.5;entryDx=0;entryDy=0;" parent="1" source="JwduhND43qN6gX2zfuCN-14" target="JwduhND43qN6gX2zfuCN-13" edge="1">
          <mxGeometry relative="1" as="geometry" />
        </mxCell>
        <mxCell id="JwduhND43qN6gX2zfuCN-56" value="5" style="edgeLabel;html=1;align=center;verticalAlign=middle;resizable=0;points=[];" parent="JwduhND43qN6gX2zfuCN-25" vertex="1" connectable="0">
          <mxGeometry x="-0.9132" y="1" relative="1" as="geometry">
            <mxPoint y="1" as="offset" />
          </mxGeometry>
        </mxCell>
        <mxCell id="JwduhND43qN6gX2zfuCN-43" style="edgeStyle=orthogonalEdgeStyle;rounded=0;orthogonalLoop=1;jettySize=auto;html=1;exitX=0;exitY=0.5;exitDx=0;exitDy=0;entryX=0.5;entryY=1;entryDx=0;entryDy=0;" parent="1" source="JwduhND43qN6gX2zfuCN-14" target="JwduhND43qN6gX2zfuCN-16" edge="1">
          <mxGeometry relative="1" as="geometry" />
        </mxCell>
        <mxCell id="JwduhND43qN6gX2zfuCN-58" value="7" style="edgeLabel;html=1;align=center;verticalAlign=middle;resizable=0;points=[];" parent="JwduhND43qN6gX2zfuCN-43" vertex="1" connectable="0">
          <mxGeometry x="-0.0799" relative="1" as="geometry">
            <mxPoint as="offset" />
          </mxGeometry>
        </mxCell>
        <mxCell id="JwduhND43qN6gX2zfuCN-14" value="multi-prod-init-dispatcher" style="rounded=1;whiteSpace=wrap;html=1;" parent="1" vertex="1">
          <mxGeometry x="220" y="221" width="120" height="111" as="geometry" />
        </mxCell>
        <mxCell id="JwduhND43qN6gX2zfuCN-17" style="edgeStyle=orthogonalEdgeStyle;rounded=0;orthogonalLoop=1;jettySize=auto;html=1;exitX=1;exitY=0.5;exitDx=0;exitDy=0;entryX=0;entryY=0.5;entryDx=0;entryDy=0;" parent="1" source="JwduhND43qN6gX2zfuCN-16" target="JwduhND43qN6gX2zfuCN-8" edge="1">
          <mxGeometry relative="1" as="geometry" />
        </mxCell>
        <mxCell id="JwduhND43qN6gX2zfuCN-53" value="1" style="edgeLabel;html=1;align=center;verticalAlign=middle;resizable=0;points=[];" parent="JwduhND43qN6gX2zfuCN-17" vertex="1" connectable="0">
          <mxGeometry x="-0.2286" y="1" relative="1" as="geometry">
            <mxPoint as="offset" />
          </mxGeometry>
        </mxCell>
        <mxCell id="JwduhND43qN6gX2zfuCN-16" value="prodinit" style="rounded=1;whiteSpace=wrap;html=1;" parent="1" vertex="1">
          <mxGeometry x="50" y="150" width="100" height="40" as="geometry" />
        </mxCell>
        <mxCell id="PE38SQfPAT9IPxksKFDa-1" style="edgeStyle=orthogonalEdgeStyle;rounded=0;orthogonalLoop=1;jettySize=auto;html=1;exitX=1;exitY=0.75;exitDx=0;exitDy=0;entryX=0.467;entryY=0.037;entryDx=0;entryDy=0;entryPerimeter=0;fontSize=14;strokeColor=#FF0000;" parent="1" source="JwduhND43qN6gX2zfuCN-42" target="JwduhND43qN6gX2zfuCN-4" edge="1">
          <mxGeometry relative="1" as="geometry" />
        </mxCell>
        <mxCell id="PE38SQfPAT9IPxksKFDa-6" value="6.获取子活动配置" style="edgeLabel;html=1;align=center;verticalAlign=middle;resizable=0;points=[];fontSize=12;" parent="PE38SQfPAT9IPxksKFDa-1" vertex="1" connectable="0">
          <mxGeometry x="0.375" y="-1" relative="1" as="geometry">
            <mxPoint y="2" as="offset" />
          </mxGeometry>
        </mxCell>
        <mxCell id="PE38SQfPAT9IPxksKFDa-2" style="edgeStyle=orthogonalEdgeStyle;rounded=0;orthogonalLoop=1;jettySize=auto;html=1;exitX=1;exitY=0.5;exitDx=0;exitDy=0;entryX=-0.008;entryY=0.829;entryDx=0;entryDy=0;entryPerimeter=0;fontSize=14;strokeColor=#FFD966;" parent="1" source="JwduhND43qN6gX2zfuCN-42" target="JwduhND43qN6gX2zfuCN-6" edge="1">
          <mxGeometry relative="1" as="geometry" />
        </mxCell>
        <mxCell id="PE38SQfPAT9IPxksKFDa-5" value="6.获取子活动配置" style="edgeLabel;html=1;align=center;verticalAlign=middle;resizable=0;points=[];fontSize=12;" parent="PE38SQfPAT9IPxksKFDa-2" vertex="1" connectable="0">
          <mxGeometry x="-0.5034" relative="1" as="geometry">
            <mxPoint x="33" as="offset" />
          </mxGeometry>
        </mxCell>
        <mxCell id="PE38SQfPAT9IPxksKFDa-3" style="edgeStyle=orthogonalEdgeStyle;rounded=0;orthogonalLoop=1;jettySize=auto;html=1;exitX=1;exitY=0.25;exitDx=0;exitDy=0;entryX=0;entryY=0.682;entryDx=0;entryDy=0;entryPerimeter=0;fontSize=14;strokeColor=#FFD966;" parent="1" source="JwduhND43qN6gX2zfuCN-42" target="JwduhND43qN6gX2zfuCN-6" edge="1">
          <mxGeometry relative="1" as="geometry" />
        </mxCell>
        <mxCell id="PE38SQfPAT9IPxksKFDa-4" value="3.获取xak映射" style="edgeLabel;html=1;align=center;verticalAlign=middle;resizable=0;points=[];fontSize=12;" parent="PE38SQfPAT9IPxksKFDa-3" vertex="1" connectable="0">
          <mxGeometry x="-0.5885" relative="1" as="geometry">
            <mxPoint x="40" y="3" as="offset" />
          </mxGeometry>
        </mxCell>
        <mxCell id="JwduhND43qN6gX2zfuCN-42" value="活动管理模块" style="whiteSpace=wrap;html=1;aspect=fixed;strokeWidth=3;labelBackgroundColor=default;fillColor=#FFF2CC;opacity=50;fillStyle=hatch;" parent="1" vertex="1">
          <mxGeometry x="570" y="211" width="100" height="100" as="geometry" />
        </mxCell>
        <mxCell id="JwduhND43qN6gX2zfuCN-49" value="活动匹配" style="rounded=1;whiteSpace=wrap;html=1;" parent="1" vertex="1">
          <mxGeometry x="852.5" y="348" width="95" height="40" as="geometry" />
        </mxCell>
        <mxCell id="JwduhND43qN6gX2zfuCN-50" value="活动查询" style="rounded=1;whiteSpace=wrap;html=1;" parent="1" vertex="1">
          <mxGeometry x="852.5" y="408" width="95" height="40" as="geometry" />
        </mxCell>
        <mxCell id="JwduhND43qN6gX2zfuCN-51" value="活动匹配" style="rounded=1;whiteSpace=wrap;html=1;" parent="1" vertex="1">
          <mxGeometry x="852.5" y="155" width="95" height="40" as="geometry" />
        </mxCell>
        <mxCell id="JwduhND43qN6gX2zfuCN-52" value="活动查询" style="rounded=1;whiteSpace=wrap;html=1;" parent="1" vertex="1">
          <mxGeometry x="852.5" y="215" width="95" height="40" as="geometry" />
        </mxCell>
        <mxCell id="JwduhND43qN6gX2zfuCN-61" style="edgeStyle=orthogonalEdgeStyle;rounded=0;orthogonalLoop=1;jettySize=auto;html=1;exitX=0.5;exitY=0.5;exitDx=0;exitDy=0;exitPerimeter=0;entryX=0;entryY=0.5;entryDx=0;entryDy=0;strokeColor=#000033;" parent="1" source="JwduhND43qN6gX2zfuCN-60" target="JwduhND43qN6gX2zfuCN-16" edge="1">
          <mxGeometry relative="1" as="geometry" />
        </mxCell>
        <mxCell id="JwduhND43qN6gX2zfuCN-62" value="0" style="edgeLabel;html=1;align=center;verticalAlign=middle;resizable=0;points=[];" parent="JwduhND43qN6gX2zfuCN-61" vertex="1" connectable="0">
          <mxGeometry x="-0.3443" y="3" relative="1" as="geometry">
            <mxPoint y="1" as="offset" />
          </mxGeometry>
        </mxCell>
        <mxCell id="JwduhND43qN6gX2zfuCN-60" value="Actor" style="shape=umlActor;verticalLabelPosition=bottom;verticalAlign=top;html=1;outlineConnect=0;rounded=0;shadow=1;sketch=1;strokeColor=#000033;strokeWidth=2;fillColor=none;" parent="1" vertex="1">
          <mxGeometry x="-14" y="140" width="30" height="60" as="geometry" />
        </mxCell>
        <mxCell id="JwduhND43qN6gX2zfuCN-63" value="webx" style="text;html=1;strokeColor=none;fillColor=none;align=center;verticalAlign=middle;whiteSpace=wrap;rounded=0;shadow=1;sketch=1;fontSize=14;" parent="1" vertex="1">
          <mxGeometry x="70" y="89" width="60" height="30" as="geometry" />
        </mxCell>
        <mxCell id="JwduhND43qN6gX2zfuCN-64" value="faced" style="text;html=1;strokeColor=none;fillColor=none;align=center;verticalAlign=middle;whiteSpace=wrap;rounded=0;shadow=1;sketch=1;fontSize=14;" parent="1" vertex="1">
          <mxGeometry x="250" y="89" width="60" height="30" as="geometry" />
        </mxCell>
        <mxCell id="JwduhND43qN6gX2zfuCN-65" value="brick" style="text;html=1;strokeColor=none;fillColor=none;align=center;verticalAlign=middle;whiteSpace=wrap;rounded=0;shadow=1;sketch=1;fontSize=14;" parent="1" vertex="1">
          <mxGeometry x="515" y="90" width="60" height="30" as="geometry" />
        </mxCell>
        <mxCell id="JwduhND43qN6gX2zfuCN-66" value="brick活动管理" style="text;html=1;strokeColor=none;fillColor=none;align=center;verticalAlign=middle;whiteSpace=wrap;rounded=0;shadow=1;sketch=1;fontSize=14;" parent="1" vertex="1">
          <mxGeometry x="855" y="89" width="90" height="30" as="geometry" />
        </mxCell>
        <mxCell id="JwduhND43qN6gX2zfuCN-67" value="aps" style="text;html=1;strokeColor=none;fillColor=none;align=center;verticalAlign=middle;whiteSpace=wrap;rounded=0;shadow=1;sketch=1;fontSize=14;" parent="1" vertex="1">
          <mxGeometry x="870" y="310" width="60" height="30" as="geometry" />
        </mxCell>
        <mxCell id="PE38SQfPAT9IPxksKFDa-7" value="接入aps组件" style="rounded=1;whiteSpace=wrap;html=1;strokeColor=#FF0000;sketch=1;" parent="1" vertex="1">
          <mxGeometry x="1000" y="120" width="80" height="40" as="geometry" />
        </mxCell>
        <mxCell id="PE38SQfPAT9IPxksKFDa-8" value="brick组件" style="rounded=1;whiteSpace=wrap;html=1;sketch=1;strokeColor=#FFD966;" parent="1" vertex="1">
          <mxGeometry x="1000" y="179" width="80" height="40" as="geometry" />
        </mxCell>
      </root>
    </mxGraphModel>
  </diagram>
  <diagram id="TxXT6c2JRqx7haib5ZhR" name="brick-new">
    <mxGraphModel dx="2261" dy="771" grid="1" gridSize="10" guides="1" tooltips="1" connect="1" arrows="1" fold="1" page="1" pageScale="1" pageWidth="827" pageHeight="1169" math="0" shadow="0">
      <root>
        <mxCell id="0" />
        <mxCell id="1" parent="0" />
        <mxCell id="qk-3Vc2ffvH1CULfstv1-56" value="" style="rounded=1;whiteSpace=wrap;html=1;dashed=1;" parent="1" vertex="1">
          <mxGeometry x="-168" y="119" width="120" height="360" as="geometry" />
        </mxCell>
        <mxCell id="qk-3Vc2ffvH1CULfstv1-1" value="" style="rounded=1;whiteSpace=wrap;html=1;dashed=1;" parent="1" vertex="1">
          <mxGeometry y="120" width="160" height="360" as="geometry" />
        </mxCell>
        <mxCell id="qk-3Vc2ffvH1CULfstv1-2" value="" style="rounded=1;whiteSpace=wrap;html=1;dashed=1;" parent="1" vertex="1">
          <mxGeometry x="200" y="120" width="160" height="360" as="geometry" />
        </mxCell>
        <mxCell id="qk-3Vc2ffvH1CULfstv1-3" value="" style="rounded=1;whiteSpace=wrap;html=1;dashed=1;" parent="1" vertex="1">
          <mxGeometry x="400" y="119" width="280" height="360" as="geometry" />
        </mxCell>
        <mxCell id="qk-3Vc2ffvH1CULfstv1-90" style="edgeStyle=orthogonalEdgeStyle;rounded=0;orthogonalLoop=1;jettySize=auto;html=1;entryX=-0.008;entryY=0.522;entryDx=0;entryDy=0;entryPerimeter=0;fontSize=12;strokeColor=#000033;" parent="1" source="qk-3Vc2ffvH1CULfstv1-5" target="qk-3Vc2ffvH1CULfstv1-6" edge="1">
          <mxGeometry relative="1" as="geometry">
            <Array as="points">
              <mxPoint x="805" y="367" />
              <mxPoint x="805" y="308" />
            </Array>
          </mxGeometry>
        </mxCell>
        <mxCell id="qk-3Vc2ffvH1CULfstv1-5" value="aps-sdk" style="html=1;whiteSpace=wrap;aspect=fixed;shape=isoRectangle;strokeColor=#FF0000;strokeWidth=2;sketch=1;shadow=1;" parent="1" vertex="1">
          <mxGeometry x="700" y="340" width="90" height="54" as="geometry" />
        </mxCell>
        <mxCell id="qk-3Vc2ffvH1CULfstv1-6" value="" style="rounded=1;whiteSpace=wrap;html=1;dashed=1;strokeColor=#000033;" parent="1" vertex="1">
          <mxGeometry x="825" y="120" width="120" height="360" as="geometry" />
        </mxCell>
        <mxCell id="qk-3Vc2ffvH1CULfstv1-8" style="edgeStyle=orthogonalEdgeStyle;rounded=0;orthogonalLoop=1;jettySize=auto;html=1;exitX=1;exitY=0.5;exitDx=0;exitDy=0;entryX=0;entryY=0.5;entryDx=0;entryDy=0;" parent="1" source="qk-3Vc2ffvH1CULfstv1-10" target="qk-3Vc2ffvH1CULfstv1-14" edge="1">
          <mxGeometry relative="1" as="geometry" />
        </mxCell>
        <mxCell id="qk-3Vc2ffvH1CULfstv1-9" value="4" style="edgeLabel;html=1;align=center;verticalAlign=middle;resizable=0;points=[];" parent="qk-3Vc2ffvH1CULfstv1-8" vertex="1" connectable="0">
          <mxGeometry x="0.075" y="2" relative="1" as="geometry">
            <mxPoint as="offset" />
          </mxGeometry>
        </mxCell>
        <mxCell id="qk-3Vc2ffvH1CULfstv1-10" value="init" style="rounded=1;whiteSpace=wrap;html=1;" parent="1" vertex="1">
          <mxGeometry x="220" y="150" width="120" height="40" as="geometry" />
        </mxCell>
        <mxCell id="qk-3Vc2ffvH1CULfstv1-11" value="5" style="edgeStyle=orthogonalEdgeStyle;rounded=0;orthogonalLoop=1;jettySize=auto;html=1;exitX=0.75;exitY=1;exitDx=0;exitDy=0;entryX=0.5;entryY=0;entryDx=0;entryDy=0;" parent="1" source="qk-3Vc2ffvH1CULfstv1-14" edge="1">
          <mxGeometry relative="1" as="geometry">
            <mxPoint x="620" y="210" as="targetPoint" />
          </mxGeometry>
        </mxCell>
        <mxCell id="qk-3Vc2ffvH1CULfstv1-12" style="edgeStyle=orthogonalEdgeStyle;rounded=0;orthogonalLoop=1;jettySize=auto;html=1;exitX=0.5;exitY=1;exitDx=0;exitDy=0;entryX=0.5;entryY=0;entryDx=0;entryDy=0;" parent="1" source="qk-3Vc2ffvH1CULfstv1-14" target="qk-3Vc2ffvH1CULfstv1-31" edge="1">
          <mxGeometry relative="1" as="geometry">
            <Array as="points">
              <mxPoint x="545" y="200" />
              <mxPoint x="280" y="200" />
            </Array>
          </mxGeometry>
        </mxCell>
        <mxCell id="qk-3Vc2ffvH1CULfstv1-13" value="6" style="edgeLabel;html=1;align=center;verticalAlign=middle;resizable=0;points=[];" parent="qk-3Vc2ffvH1CULfstv1-12" vertex="1" connectable="0">
          <mxGeometry x="0.1149" y="-1" relative="1" as="geometry">
            <mxPoint as="offset" />
          </mxGeometry>
        </mxCell>
        <mxCell id="qk-3Vc2ffvH1CULfstv1-14" value="xak-matcher" style="rounded=1;whiteSpace=wrap;html=1;sketch=1;strokeColor=#FF0000;" parent="1" vertex="1">
          <mxGeometry x="420" y="150" width="250" height="40" as="geometry" />
        </mxCell>
        <mxCell id="qk-3Vc2ffvH1CULfstv1-15" style="edgeStyle=orthogonalEdgeStyle;rounded=0;orthogonalLoop=1;jettySize=auto;html=1;exitX=1;exitY=0.5;exitDx=0;exitDy=0;entryX=0;entryY=0.5;entryDx=0;entryDy=0;strokeColor=#FF0000;" parent="1" source="qk-3Vc2ffvH1CULfstv1-16" target="qk-3Vc2ffvH1CULfstv1-41" edge="1">
          <mxGeometry relative="1" as="geometry" />
        </mxCell>
        <mxCell id="qk-3Vc2ffvH1CULfstv1-16" value="seckill-init" style="rounded=1;whiteSpace=wrap;html=1;sketch=1;strokeColor=#FF0000;" parent="1" vertex="1">
          <mxGeometry x="420" y="219" width="110" height="40" as="geometry" />
        </mxCell>
        <mxCell id="qk-3Vc2ffvH1CULfstv1-17" style="edgeStyle=orthogonalEdgeStyle;rounded=0;orthogonalLoop=1;jettySize=auto;html=1;exitX=1;exitY=0.5;exitDx=0;exitDy=0;entryX=0;entryY=0.5;entryDx=0;entryDy=0;strokeColor=#FF0000;" parent="1" source="qk-3Vc2ffvH1CULfstv1-18" target="qk-3Vc2ffvH1CULfstv1-41" edge="1">
          <mxGeometry relative="1" as="geometry" />
        </mxCell>
        <mxCell id="qk-3Vc2ffvH1CULfstv1-18" value="assist-init" style="rounded=1;whiteSpace=wrap;html=1;sketch=1;strokeColor=#FF0000;" parent="1" vertex="1">
          <mxGeometry x="420" y="291" width="110" height="40" as="geometry" />
        </mxCell>
        <mxCell id="qk-3Vc2ffvH1CULfstv1-19" style="edgeStyle=orthogonalEdgeStyle;rounded=0;orthogonalLoop=1;jettySize=auto;html=1;exitX=1;exitY=0.5;exitDx=0;exitDy=0;entryX=0;entryY=0.5;entryDx=0;entryDy=0;strokeColor=#FF0000;" parent="1" source="qk-3Vc2ffvH1CULfstv1-20" target="qk-3Vc2ffvH1CULfstv1-41" edge="1">
          <mxGeometry relative="1" as="geometry" />
        </mxCell>
        <mxCell id="qk-3Vc2ffvH1CULfstv1-20" value="lottery-init" style="rounded=1;whiteSpace=wrap;html=1;sketch=1;strokeColor=#FF0000;" parent="1" vertex="1">
          <mxGeometry x="420" y="360" width="110" height="40" as="geometry" />
        </mxCell>
        <mxCell id="qk-3Vc2ffvH1CULfstv1-21" style="edgeStyle=orthogonalEdgeStyle;rounded=0;orthogonalLoop=1;jettySize=auto;html=1;exitX=1;exitY=0.5;exitDx=0;exitDy=0;entryX=0;entryY=0.5;entryDx=0;entryDy=0;strokeColor=#FF0000;" parent="1" source="qk-3Vc2ffvH1CULfstv1-23" target="qk-3Vc2ffvH1CULfstv1-41" edge="1">
          <mxGeometry relative="1" as="geometry" />
        </mxCell>
        <mxCell id="qk-3Vc2ffvH1CULfstv1-22" value="策略获取" style="edgeLabel;html=1;align=center;verticalAlign=middle;resizable=0;points=[];" parent="qk-3Vc2ffvH1CULfstv1-21" vertex="1" connectable="0">
          <mxGeometry x="0.0917" y="-1" relative="1" as="geometry">
            <mxPoint as="offset" />
          </mxGeometry>
        </mxCell>
        <mxCell id="qk-3Vc2ffvH1CULfstv1-23" value="expand-init" style="rounded=1;whiteSpace=wrap;html=1;strokeColor=#FF0000;sketch=1;" parent="1" vertex="1">
          <mxGeometry x="420" y="430" width="110" height="40" as="geometry" />
        </mxCell>
        <mxCell id="qk-3Vc2ffvH1CULfstv1-24" style="edgeStyle=orthogonalEdgeStyle;rounded=0;orthogonalLoop=1;jettySize=auto;html=1;exitX=1;exitY=0.5;exitDx=0;exitDy=0;entryX=0;entryY=0.5;entryDx=0;entryDy=0;" parent="1" source="qk-3Vc2ffvH1CULfstv1-31" target="qk-3Vc2ffvH1CULfstv1-16" edge="1">
          <mxGeometry relative="1" as="geometry" />
        </mxCell>
        <mxCell id="qk-3Vc2ffvH1CULfstv1-25" style="edgeStyle=orthogonalEdgeStyle;rounded=0;orthogonalLoop=1;jettySize=auto;html=1;exitX=1;exitY=0.5;exitDx=0;exitDy=0;entryX=0;entryY=0.5;entryDx=0;entryDy=0;" parent="1" source="qk-3Vc2ffvH1CULfstv1-31" target="qk-3Vc2ffvH1CULfstv1-18" edge="1">
          <mxGeometry relative="1" as="geometry" />
        </mxCell>
        <mxCell id="qk-3Vc2ffvH1CULfstv1-26" style="edgeStyle=orthogonalEdgeStyle;rounded=0;orthogonalLoop=1;jettySize=auto;html=1;exitX=1;exitY=0.5;exitDx=0;exitDy=0;entryX=0;entryY=0.5;entryDx=0;entryDy=0;" parent="1" source="qk-3Vc2ffvH1CULfstv1-31" target="qk-3Vc2ffvH1CULfstv1-20" edge="1">
          <mxGeometry relative="1" as="geometry" />
        </mxCell>
        <mxCell id="qk-3Vc2ffvH1CULfstv1-27" style="edgeStyle=orthogonalEdgeStyle;rounded=0;orthogonalLoop=1;jettySize=auto;html=1;exitX=1;exitY=0.5;exitDx=0;exitDy=0;entryX=0;entryY=0.5;entryDx=0;entryDy=0;" parent="1" source="qk-3Vc2ffvH1CULfstv1-31" target="qk-3Vc2ffvH1CULfstv1-23" edge="1">
          <mxGeometry relative="1" as="geometry" />
        </mxCell>
        <mxCell id="qk-3Vc2ffvH1CULfstv1-28" value="6" style="edgeLabel;html=1;align=center;verticalAlign=middle;resizable=0;points=[];" parent="qk-3Vc2ffvH1CULfstv1-27" vertex="1" connectable="0">
          <mxGeometry x="-0.9132" y="1" relative="1" as="geometry">
            <mxPoint y="1" as="offset" />
          </mxGeometry>
        </mxCell>
        <mxCell id="qk-3Vc2ffvH1CULfstv1-74" style="edgeStyle=orthogonalEdgeStyle;rounded=0;orthogonalLoop=1;jettySize=auto;html=1;exitX=0.5;exitY=1;exitDx=0;exitDy=0;entryX=0.5;entryY=0;entryDx=0;entryDy=0;fontSize=12;strokeColor=#000033;" parent="1" source="qk-3Vc2ffvH1CULfstv1-31" target="qk-3Vc2ffvH1CULfstv1-62" edge="1">
          <mxGeometry relative="1" as="geometry" />
        </mxCell>
        <mxCell id="qk-3Vc2ffvH1CULfstv1-91" value="7" style="edgeLabel;html=1;align=center;verticalAlign=middle;resizable=0;points=[];fontSize=12;" parent="qk-3Vc2ffvH1CULfstv1-74" vertex="1" connectable="0">
          <mxGeometry x="0.1691" y="2" relative="1" as="geometry">
            <mxPoint as="offset" />
          </mxGeometry>
        </mxCell>
        <mxCell id="qk-3Vc2ffvH1CULfstv1-31" value="multi-prod-init-dispatcher" style="rounded=1;whiteSpace=wrap;html=1;" parent="1" vertex="1">
          <mxGeometry x="220" y="221" width="120" height="111" as="geometry" />
        </mxCell>
        <mxCell id="qk-3Vc2ffvH1CULfstv1-72" style="edgeStyle=orthogonalEdgeStyle;rounded=0;orthogonalLoop=1;jettySize=auto;html=1;exitX=0.5;exitY=1;exitDx=0;exitDy=0;entryX=0.5;entryY=0;entryDx=0;entryDy=0;fontSize=12;strokeColor=#000033;" parent="1" source="qk-3Vc2ffvH1CULfstv1-34" target="qk-3Vc2ffvH1CULfstv1-61" edge="1">
          <mxGeometry relative="1" as="geometry" />
        </mxCell>
        <mxCell id="qk-3Vc2ffvH1CULfstv1-85" value="2" style="edgeLabel;html=1;align=center;verticalAlign=middle;resizable=0;points=[];fontSize=12;" parent="qk-3Vc2ffvH1CULfstv1-72" vertex="1" connectable="0">
          <mxGeometry x="-0.0968" relative="1" as="geometry">
            <mxPoint as="offset" />
          </mxGeometry>
        </mxCell>
        <mxCell id="qk-3Vc2ffvH1CULfstv1-34" value="" style="rounded=1;whiteSpace=wrap;html=1;" parent="1" vertex="1">
          <mxGeometry x="17" y="140" width="130" height="90" as="geometry" />
        </mxCell>
        <mxCell id="qk-3Vc2ffvH1CULfstv1-35" style="edgeStyle=orthogonalEdgeStyle;rounded=0;orthogonalLoop=1;jettySize=auto;html=1;exitX=1;exitY=0.75;exitDx=0;exitDy=0;entryX=0.467;entryY=0.037;entryDx=0;entryDy=0;entryPerimeter=0;fontSize=14;strokeColor=#FF0000;" parent="1" source="qk-3Vc2ffvH1CULfstv1-41" target="qk-3Vc2ffvH1CULfstv1-5" edge="1">
          <mxGeometry relative="1" as="geometry" />
        </mxCell>
        <mxCell id="qk-3Vc2ffvH1CULfstv1-36" value="6.获取子活动配置" style="edgeLabel;html=1;align=center;verticalAlign=middle;resizable=0;points=[];fontSize=12;" parent="qk-3Vc2ffvH1CULfstv1-35" vertex="1" connectable="0">
          <mxGeometry x="0.375" y="-1" relative="1" as="geometry">
            <mxPoint y="2" as="offset" />
          </mxGeometry>
        </mxCell>
        <mxCell id="qk-3Vc2ffvH1CULfstv1-87" style="edgeStyle=orthogonalEdgeStyle;rounded=0;orthogonalLoop=1;jettySize=auto;html=1;exitX=1;exitY=0.25;exitDx=0;exitDy=0;entryX=0.478;entryY=0.037;entryDx=0;entryDy=0;entryPerimeter=0;fontSize=12;strokeColor=#FF0000;" parent="1" source="qk-3Vc2ffvH1CULfstv1-41" target="qk-3Vc2ffvH1CULfstv1-5" edge="1">
          <mxGeometry relative="1" as="geometry" />
        </mxCell>
        <mxCell id="qk-3Vc2ffvH1CULfstv1-88" value="5.获取xak映射" style="edgeLabel;html=1;align=center;verticalAlign=middle;resizable=0;points=[];fontSize=12;" parent="qk-3Vc2ffvH1CULfstv1-87" vertex="1" connectable="0">
          <mxGeometry x="0.162" y="3" relative="1" as="geometry">
            <mxPoint as="offset" />
          </mxGeometry>
        </mxCell>
        <mxCell id="qk-3Vc2ffvH1CULfstv1-41" value="活动管理模块" style="whiteSpace=wrap;html=1;aspect=fixed;strokeWidth=3;labelBackgroundColor=default;fillColor=#FFF2CC;opacity=50;fillStyle=hatch;" parent="1" vertex="1">
          <mxGeometry x="570" y="211" width="100" height="100" as="geometry" />
        </mxCell>
        <mxCell id="qk-3Vc2ffvH1CULfstv1-42" value="活动匹配" style="rounded=1;whiteSpace=wrap;html=1;" parent="1" vertex="1">
          <mxGeometry x="837.5" y="165" width="95" height="40" as="geometry" />
        </mxCell>
        <mxCell id="qk-3Vc2ffvH1CULfstv1-43" value="活动查询" style="rounded=1;whiteSpace=wrap;html=1;" parent="1" vertex="1">
          <mxGeometry x="837.5" y="241" width="95" height="40" as="geometry" />
        </mxCell>
        <mxCell id="qk-3Vc2ffvH1CULfstv1-82" style="edgeStyle=orthogonalEdgeStyle;rounded=0;orthogonalLoop=1;jettySize=auto;html=1;exitX=0.5;exitY=0.5;exitDx=0;exitDy=0;exitPerimeter=0;fontSize=12;strokeColor=#000033;" parent="1" source="qk-3Vc2ffvH1CULfstv1-48" target="qk-3Vc2ffvH1CULfstv1-59" edge="1">
          <mxGeometry relative="1" as="geometry" />
        </mxCell>
        <mxCell id="qk-3Vc2ffvH1CULfstv1-83" value="0" style="edgeLabel;html=1;align=center;verticalAlign=middle;resizable=0;points=[];fontSize=12;" parent="qk-3Vc2ffvH1CULfstv1-82" vertex="1" connectable="0">
          <mxGeometry x="-0.1228" y="2" relative="1" as="geometry">
            <mxPoint as="offset" />
          </mxGeometry>
        </mxCell>
        <mxCell id="qk-3Vc2ffvH1CULfstv1-48" value="Actor" style="shape=umlActor;verticalLabelPosition=bottom;verticalAlign=top;html=1;outlineConnect=0;rounded=0;shadow=1;sketch=1;strokeColor=#000033;strokeWidth=2;fillColor=none;" parent="1" vertex="1">
          <mxGeometry x="-230" y="139" width="30" height="60" as="geometry" />
        </mxCell>
        <mxCell id="qk-3Vc2ffvH1CULfstv1-49" value="aps-proxy" style="text;html=1;strokeColor=none;fillColor=none;align=center;verticalAlign=middle;whiteSpace=wrap;rounded=0;shadow=1;sketch=1;fontSize=14;" parent="1" vertex="1">
          <mxGeometry x="42.5" y="89" width="80" height="30" as="geometry" />
        </mxCell>
        <mxCell id="qk-3Vc2ffvH1CULfstv1-50" value="faced" style="text;html=1;strokeColor=none;fillColor=none;align=center;verticalAlign=middle;whiteSpace=wrap;rounded=0;shadow=1;sketch=1;fontSize=14;" parent="1" vertex="1">
          <mxGeometry x="250" y="89" width="60" height="30" as="geometry" />
        </mxCell>
        <mxCell id="qk-3Vc2ffvH1CULfstv1-51" value="brick" style="text;html=1;strokeColor=none;fillColor=none;align=center;verticalAlign=middle;whiteSpace=wrap;rounded=0;shadow=1;sketch=1;fontSize=14;" parent="1" vertex="1">
          <mxGeometry x="515" y="90" width="60" height="30" as="geometry" />
        </mxCell>
        <mxCell id="qk-3Vc2ffvH1CULfstv1-54" value="接入aps组件" style="rounded=1;whiteSpace=wrap;html=1;strokeColor=#FF0000;sketch=1;" parent="1" vertex="1">
          <mxGeometry x="985" y="120" width="80" height="40" as="geometry" />
        </mxCell>
        <mxCell id="qk-3Vc2ffvH1CULfstv1-55" value="brick组件" style="rounded=1;whiteSpace=wrap;html=1;sketch=1;" parent="1" vertex="1">
          <mxGeometry x="985" y="179" width="80" height="40" as="geometry" />
        </mxCell>
        <mxCell id="qk-3Vc2ffvH1CULfstv1-69" style="edgeStyle=orthogonalEdgeStyle;rounded=0;orthogonalLoop=1;jettySize=auto;html=1;exitX=1;exitY=0.5;exitDx=0;exitDy=0;entryX=0;entryY=0.422;entryDx=0;entryDy=0;entryPerimeter=0;fontSize=12;strokeColor=#000033;" parent="1" source="qk-3Vc2ffvH1CULfstv1-59" target="qk-3Vc2ffvH1CULfstv1-34" edge="1">
          <mxGeometry relative="1" as="geometry" />
        </mxCell>
        <mxCell id="qk-3Vc2ffvH1CULfstv1-84" value="1" style="edgeLabel;html=1;align=center;verticalAlign=middle;resizable=0;points=[];fontSize=12;" parent="qk-3Vc2ffvH1CULfstv1-69" vertex="1" connectable="0">
          <mxGeometry x="-0.4524" relative="1" as="geometry">
            <mxPoint as="offset" />
          </mxGeometry>
        </mxCell>
        <mxCell id="qk-3Vc2ffvH1CULfstv1-59" value="prodinit/v2" style="rounded=1;whiteSpace=wrap;html=1;" parent="1" vertex="1">
          <mxGeometry x="-158" y="149" width="100" height="40" as="geometry" />
        </mxCell>
        <mxCell id="qk-3Vc2ffvH1CULfstv1-60" value="webx" style="text;html=1;strokeColor=none;fillColor=none;align=center;verticalAlign=middle;whiteSpace=wrap;rounded=0;shadow=1;sketch=1;fontSize=14;" parent="1" vertex="1">
          <mxGeometry x="-138" y="88" width="60" height="30" as="geometry" />
        </mxCell>
        <mxCell id="qk-3Vc2ffvH1CULfstv1-73" style="edgeStyle=orthogonalEdgeStyle;rounded=0;orthogonalLoop=1;jettySize=auto;html=1;exitX=1;exitY=0.5;exitDx=0;exitDy=0;entryX=0;entryY=0.5;entryDx=0;entryDy=0;fontSize=12;strokeColor=#000033;" parent="1" source="qk-3Vc2ffvH1CULfstv1-61" target="qk-3Vc2ffvH1CULfstv1-10" edge="1">
          <mxGeometry relative="1" as="geometry" />
        </mxCell>
        <mxCell id="qk-3Vc2ffvH1CULfstv1-86" value="3" style="edgeLabel;html=1;align=center;verticalAlign=middle;resizable=0;points=[];fontSize=12;" parent="qk-3Vc2ffvH1CULfstv1-73" vertex="1" connectable="0">
          <mxGeometry x="-0.1206" y="-1" relative="1" as="geometry">
            <mxPoint x="1" as="offset" />
          </mxGeometry>
        </mxCell>
        <mxCell id="qk-3Vc2ffvH1CULfstv1-61" value="prodinit" style="rounded=1;whiteSpace=wrap;html=1;" parent="1" vertex="1">
          <mxGeometry x="17" y="261" width="130" height="48.5" as="geometry" />
        </mxCell>
        <mxCell id="qk-3Vc2ffvH1CULfstv1-76" style="edgeStyle=orthogonalEdgeStyle;rounded=0;orthogonalLoop=1;jettySize=auto;html=1;exitX=0;exitY=0.5;exitDx=0;exitDy=0;fontSize=12;strokeColor=#000033;" parent="1" source="qk-3Vc2ffvH1CULfstv1-62" target="qk-3Vc2ffvH1CULfstv1-59" edge="1">
          <mxGeometry relative="1" as="geometry" />
        </mxCell>
        <mxCell id="qk-3Vc2ffvH1CULfstv1-93" value="9.返回活动详情" style="edgeLabel;html=1;align=center;verticalAlign=middle;resizable=0;points=[];fontSize=12;" parent="qk-3Vc2ffvH1CULfstv1-76" vertex="1" connectable="0">
          <mxGeometry x="0.2395" y="-1" relative="1" as="geometry">
            <mxPoint as="offset" />
          </mxGeometry>
        </mxCell>
        <mxCell id="qk-3Vc2ffvH1CULfstv1-80" style="edgeStyle=orthogonalEdgeStyle;rounded=0;orthogonalLoop=1;jettySize=auto;html=1;exitX=1;exitY=0.5;exitDx=0;exitDy=0;entryX=0.556;entryY=1;entryDx=0;entryDy=0;entryPerimeter=0;fontSize=12;strokeColor=#000033;" parent="1" source="qk-3Vc2ffvH1CULfstv1-62" target="qk-3Vc2ffvH1CULfstv1-5" edge="1">
          <mxGeometry relative="1" as="geometry">
            <Array as="points">
              <mxPoint x="170" y="400" />
              <mxPoint x="170" y="490" />
              <mxPoint x="750" y="490" />
            </Array>
          </mxGeometry>
        </mxCell>
        <mxCell id="qk-3Vc2ffvH1CULfstv1-92" value="8.聚合静态物料" style="edgeLabel;html=1;align=center;verticalAlign=middle;resizable=0;points=[];fontSize=12;" parent="qk-3Vc2ffvH1CULfstv1-80" vertex="1" connectable="0">
          <mxGeometry x="-0.1226" relative="1" as="geometry">
            <mxPoint as="offset" />
          </mxGeometry>
        </mxCell>
        <mxCell id="qk-3Vc2ffvH1CULfstv1-62" value="" style="rounded=1;whiteSpace=wrap;html=1;" parent="1" vertex="1">
          <mxGeometry x="15" y="340" width="130" height="120" as="geometry" />
        </mxCell>
        <mxCell id="qk-3Vc2ffvH1CULfstv1-63" value="preinit1" style="rounded=1;whiteSpace=wrap;html=1;" parent="1" vertex="1">
          <mxGeometry x="31" y="155" width="103" height="25" as="geometry" />
        </mxCell>
        <mxCell id="qk-3Vc2ffvH1CULfstv1-64" value="preinit2" style="rounded=1;whiteSpace=wrap;html=1;" parent="1" vertex="1">
          <mxGeometry x="31" y="192.5" width="103" height="25" as="geometry" />
        </mxCell>
        <mxCell id="qk-3Vc2ffvH1CULfstv1-65" value="content-aggregate" style="rounded=1;whiteSpace=wrap;html=1;" parent="1" vertex="1">
          <mxGeometry x="28.5" y="367.5" width="103" height="25" as="geometry" />
        </mxCell>
        <mxCell id="qk-3Vc2ffvH1CULfstv1-67" value="share-aggregate" style="rounded=1;whiteSpace=wrap;html=1;" parent="1" vertex="1">
          <mxGeometry x="28.5" y="415.5" width="103" height="25" as="geometry" />
        </mxCell>
        <mxCell id="qk-3Vc2ffvH1CULfstv1-77" value="aps" style="text;html=1;strokeColor=none;fillColor=none;align=center;verticalAlign=middle;whiteSpace=wrap;rounded=0;shadow=1;sketch=1;fontSize=14;" parent="1" vertex="1">
          <mxGeometry x="855" y="88" width="60" height="30" as="geometry" />
        </mxCell>
        <mxCell id="qk-3Vc2ffvH1CULfstv1-78" value="活动内容查询" style="rounded=1;whiteSpace=wrap;html=1;" parent="1" vertex="1">
          <mxGeometry x="837.5" y="311" width="95" height="40" as="geometry" />
        </mxCell>
        <mxCell id="qk-3Vc2ffvH1CULfstv1-79" value="分享物料" style="rounded=1;whiteSpace=wrap;html=1;" parent="1" vertex="1">
          <mxGeometry x="837.5" y="380" width="95" height="40" as="geometry" />
        </mxCell>
      </root>
    </mxGraphModel>
  </diagram>
  <diagram id="SPx-gxILtcSKM2ovZ-Mb" name="janitor_now">
    <mxGraphModel dx="1434" dy="771" grid="1" gridSize="10" guides="1" tooltips="1" connect="1" arrows="1" fold="1" page="1" pageScale="1" pageWidth="827" pageHeight="1169" math="0" shadow="0">
      <root>
        <mxCell id="0" />
        <mxCell id="1" parent="0" />
        <mxCell id="nenG4Tz8Bcktj6UIsv4J-4" value="" style="rounded=1;whiteSpace=wrap;html=1;dashed=1;strokeColor=#000033;" parent="1" vertex="1">
          <mxGeometry x="707" y="119" width="143" height="361" as="geometry" />
        </mxCell>
        <mxCell id="RLHFvXX-yOBdrcqH2I0M-1" value="" style="rounded=1;whiteSpace=wrap;html=1;dashed=1;" parent="1" vertex="1">
          <mxGeometry x="164" y="120" width="120" height="360" as="geometry" />
        </mxCell>
        <mxCell id="RLHFvXX-yOBdrcqH2I0M-3" value="" style="rounded=1;whiteSpace=wrap;html=1;dashed=1;" parent="1" vertex="1">
          <mxGeometry x="330" y="119" width="350" height="361" as="geometry" />
        </mxCell>
        <mxCell id="RLHFvXX-yOBdrcqH2I0M-63" style="edgeStyle=orthogonalEdgeStyle;rounded=0;orthogonalLoop=1;jettySize=auto;html=1;exitX=1;exitY=0.5;exitDx=0;exitDy=0;entryX=0;entryY=0.5;entryDx=0;entryDy=0;fontSize=12;strokeColor=#FF0000;" parent="1" source="RLHFvXX-yOBdrcqH2I0M-58" target="RLHFvXX-yOBdrcqH2I0M-41" edge="1">
          <mxGeometry relative="1" as="geometry" />
        </mxCell>
        <mxCell id="nenG4Tz8Bcktj6UIsv4J-13" value="策略&lt;br&gt;获取" style="edgeLabel;html=1;align=center;verticalAlign=middle;resizable=0;points=[];fontSize=12;" parent="RLHFvXX-yOBdrcqH2I0M-63" vertex="1" connectable="0">
          <mxGeometry x="-0.3061" y="-1" relative="1" as="geometry">
            <mxPoint x="4" as="offset" />
          </mxGeometry>
        </mxCell>
        <mxCell id="nenG4Tz8Bcktj6UIsv4J-3" style="edgeStyle=orthogonalEdgeStyle;rounded=0;orthogonalLoop=1;jettySize=auto;html=1;exitX=0;exitY=0.75;exitDx=0;exitDy=0;entryX=0.5;entryY=1;entryDx=0;entryDy=0;fontSize=12;strokeColor=#FF0000;" parent="1" source="RLHFvXX-yOBdrcqH2I0M-58" target="RLHFvXX-yOBdrcqH2I0M-34" edge="1">
          <mxGeometry relative="1" as="geometry" />
        </mxCell>
        <mxCell id="RLHFvXX-yOBdrcqH2I0M-58" value="" style="rounded=1;whiteSpace=wrap;html=1;dashed=1;" parent="1" vertex="1">
          <mxGeometry x="355" y="147" width="166" height="310" as="geometry" />
        </mxCell>
        <mxCell id="RLHFvXX-yOBdrcqH2I0M-6" value="" style="rounded=1;whiteSpace=wrap;html=1;dashed=1;strokeColor=#000033;" parent="1" vertex="1">
          <mxGeometry x="720" y="308" width="120" height="150" as="geometry" />
        </mxCell>
        <mxCell id="RLHFvXX-yOBdrcqH2I0M-7" value="" style="rounded=1;whiteSpace=wrap;html=1;dashed=1;strokeColor=#000033;" parent="1" vertex="1">
          <mxGeometry x="720" y="144" width="120" height="150" as="geometry" />
        </mxCell>
        <mxCell id="nenG4Tz8Bcktj6UIsv4J-2" style="edgeStyle=orthogonalEdgeStyle;rounded=0;orthogonalLoop=1;jettySize=auto;html=1;exitX=1;exitY=0.5;exitDx=0;exitDy=0;entryX=0;entryY=0.25;entryDx=0;entryDy=0;fontSize=12;strokeColor=#FF0000;" parent="1" source="RLHFvXX-yOBdrcqH2I0M-34" target="RLHFvXX-yOBdrcqH2I0M-58" edge="1">
          <mxGeometry relative="1" as="geometry" />
        </mxCell>
        <mxCell id="RLHFvXX-yOBdrcqH2I0M-34" value="prodinit" style="rounded=1;whiteSpace=wrap;html=1;" parent="1" vertex="1">
          <mxGeometry x="174" y="150" width="100" height="40" as="geometry" />
        </mxCell>
        <mxCell id="nenG4Tz8Bcktj6UIsv4J-7" style="edgeStyle=orthogonalEdgeStyle;rounded=0;orthogonalLoop=1;jettySize=auto;html=1;exitX=1;exitY=0.5;exitDx=0;exitDy=0;fontSize=12;strokeColor=#FF0000;endSize=6;" parent="1" source="RLHFvXX-yOBdrcqH2I0M-41" edge="1">
          <mxGeometry relative="1" as="geometry">
            <mxPoint x="700" y="302" as="targetPoint" />
          </mxGeometry>
        </mxCell>
        <mxCell id="RLHFvXX-yOBdrcqH2I0M-41" value="活动策略&lt;br&gt;获取模块" style="whiteSpace=wrap;html=1;aspect=fixed;strokeWidth=3;labelBackgroundColor=default;fillColor=#FFF2CC;opacity=50;fillStyle=hatch;" parent="1" vertex="1">
          <mxGeometry x="570" y="252" width="100" height="100" as="geometry" />
        </mxCell>
        <mxCell id="RLHFvXX-yOBdrcqH2I0M-42" value="活动匹配" style="rounded=1;whiteSpace=wrap;html=1;" parent="1" vertex="1">
          <mxGeometry x="732.5" y="336" width="95" height="40" as="geometry" />
        </mxCell>
        <mxCell id="RLHFvXX-yOBdrcqH2I0M-43" value="活动查询" style="rounded=1;whiteSpace=wrap;html=1;" parent="1" vertex="1">
          <mxGeometry x="732.5" y="396" width="95" height="40" as="geometry" />
        </mxCell>
        <mxCell id="RLHFvXX-yOBdrcqH2I0M-44" value="活动匹配" style="rounded=1;whiteSpace=wrap;html=1;" parent="1" vertex="1">
          <mxGeometry x="732.5" y="169" width="95" height="40" as="geometry" />
        </mxCell>
        <mxCell id="RLHFvXX-yOBdrcqH2I0M-45" value="活动查询" style="rounded=1;whiteSpace=wrap;html=1;" parent="1" vertex="1">
          <mxGeometry x="732.5" y="229" width="95" height="40" as="geometry" />
        </mxCell>
        <mxCell id="RLHFvXX-yOBdrcqH2I0M-46" style="edgeStyle=orthogonalEdgeStyle;rounded=0;orthogonalLoop=1;jettySize=auto;html=1;exitX=0.5;exitY=0.5;exitDx=0;exitDy=0;exitPerimeter=0;entryX=0;entryY=0.5;entryDx=0;entryDy=0;strokeColor=#000033;" parent="1" source="RLHFvXX-yOBdrcqH2I0M-48" target="RLHFvXX-yOBdrcqH2I0M-34" edge="1">
          <mxGeometry relative="1" as="geometry" />
        </mxCell>
        <mxCell id="RLHFvXX-yOBdrcqH2I0M-47" value="0" style="edgeLabel;html=1;align=center;verticalAlign=middle;resizable=0;points=[];" parent="RLHFvXX-yOBdrcqH2I0M-46" vertex="1" connectable="0">
          <mxGeometry x="-0.3443" y="3" relative="1" as="geometry">
            <mxPoint y="1" as="offset" />
          </mxGeometry>
        </mxCell>
        <mxCell id="RLHFvXX-yOBdrcqH2I0M-48" value="Actor" style="shape=umlActor;verticalLabelPosition=bottom;verticalAlign=top;html=1;outlineConnect=0;rounded=0;shadow=1;sketch=1;strokeColor=#000033;strokeWidth=2;fillColor=none;" parent="1" vertex="1">
          <mxGeometry x="110" y="140" width="30" height="60" as="geometry" />
        </mxCell>
        <mxCell id="RLHFvXX-yOBdrcqH2I0M-49" value="webx" style="text;html=1;strokeColor=none;fillColor=none;align=center;verticalAlign=middle;whiteSpace=wrap;rounded=0;shadow=1;sketch=1;fontSize=14;" parent="1" vertex="1">
          <mxGeometry x="194" y="89" width="60" height="30" as="geometry" />
        </mxCell>
        <mxCell id="RLHFvXX-yOBdrcqH2I0M-57" value="秒杀" style="rounded=1;whiteSpace=wrap;html=1;sketch=1;" parent="1" vertex="1">
          <mxGeometry x="383" y="169" width="110" height="40" as="geometry" />
        </mxCell>
        <mxCell id="RLHFvXX-yOBdrcqH2I0M-59" value="日常领券" style="rounded=1;whiteSpace=wrap;html=1;sketch=1;" parent="1" vertex="1">
          <mxGeometry x="383" y="230" width="110" height="40" as="geometry" />
        </mxCell>
        <mxCell id="RLHFvXX-yOBdrcqH2I0M-60" value="助力" style="rounded=1;whiteSpace=wrap;html=1;sketch=1;" parent="1" vertex="1">
          <mxGeometry x="383" y="288" width="110" height="40" as="geometry" />
        </mxCell>
        <mxCell id="RLHFvXX-yOBdrcqH2I0M-61" value="抽奖" style="rounded=1;whiteSpace=wrap;html=1;sketch=1;" parent="1" vertex="1">
          <mxGeometry x="383" y="400" width="110" height="40" as="geometry" />
        </mxCell>
        <mxCell id="RLHFvXX-yOBdrcqH2I0M-62" value="兑换券" style="rounded=1;whiteSpace=wrap;html=1;sketch=1;" parent="1" vertex="1">
          <mxGeometry x="383" y="344" width="110" height="40" as="geometry" />
        </mxCell>
        <mxCell id="nenG4Tz8Bcktj6UIsv4J-1" value="janitor" style="text;html=1;strokeColor=none;fillColor=none;align=center;verticalAlign=middle;whiteSpace=wrap;rounded=0;shadow=1;sketch=1;fontSize=14;" parent="1" vertex="1">
          <mxGeometry x="475" y="89" width="60" height="30" as="geometry" />
        </mxCell>
        <mxCell id="nenG4Tz8Bcktj6UIsv4J-9" value="配置数据源" style="text;html=1;strokeColor=none;fillColor=none;align=center;verticalAlign=middle;whiteSpace=wrap;rounded=0;shadow=1;sketch=1;fontSize=14;" parent="1" vertex="1">
          <mxGeometry x="737.75" y="89" width="81.5" height="30" as="geometry" />
        </mxCell>
        <mxCell id="nenG4Tz8Bcktj6UIsv4J-10" value="apollo" style="text;html=1;strokeColor=none;fillColor=none;align=center;verticalAlign=middle;whiteSpace=wrap;rounded=0;shadow=1;glass=1;labelBackgroundColor=#FFCE9F;sketch=1;fillStyle=hatch;fontSize=12;opacity=50;" parent="1" vertex="1">
          <mxGeometry x="749" y="141" width="60" height="30" as="geometry" />
        </mxCell>
        <mxCell id="nenG4Tz8Bcktj6UIsv4J-11" value="mysql" style="text;html=1;strokeColor=none;fillColor=none;align=center;verticalAlign=middle;whiteSpace=wrap;rounded=0;shadow=1;glass=1;labelBackgroundColor=#FFCE9F;sketch=1;fillStyle=hatch;fontSize=12;opacity=50;" parent="1" vertex="1">
          <mxGeometry x="748.5" y="306" width="60" height="30" as="geometry" />
        </mxCell>
        <mxCell id="nenG4Tz8Bcktj6UIsv4J-12" value="产品初始化" style="text;html=1;strokeColor=none;fillColor=none;align=center;verticalAlign=middle;whiteSpace=wrap;rounded=0;shadow=1;glass=1;labelBackgroundColor=#FFCE9F;sketch=1;fillStyle=hatch;fontSize=12;opacity=50;" parent="1" vertex="1">
          <mxGeometry x="403" y="120" width="72" height="30" as="geometry" />
        </mxCell>
      </root>
    </mxGraphModel>
  </diagram>
  <diagram id="2NCIg8Czq48iDVi5HRVg" name="Page-4">
    <mxGraphModel dx="2261" dy="771" grid="1" gridSize="10" guides="1" tooltips="1" connect="1" arrows="1" fold="1" page="1" pageScale="1" pageWidth="827" pageHeight="1169" math="0" shadow="0">
      <root>
        <mxCell id="0" />
        <mxCell id="1" parent="0" />
        <mxCell id="aamSZfilBb_t0S4ZkZF5-1" value="" style="rounded=1;whiteSpace=wrap;html=1;dashed=1;" parent="1" vertex="1">
          <mxGeometry x="120" y="120" width="160" height="360" as="geometry" />
        </mxCell>
        <mxCell id="eQRcpBfi1UONhJg_L3Pk-1" value="" style="rounded=1;whiteSpace=wrap;html=1;dashed=1;strokeColor=#000033;" parent="1" vertex="1">
          <mxGeometry x="793" y="119" width="143" height="361" as="geometry" />
        </mxCell>
        <mxCell id="eQRcpBfi1UONhJg_L3Pk-2" value="" style="rounded=1;whiteSpace=wrap;html=1;dashed=1;" parent="1" vertex="1">
          <mxGeometry x="-46" y="120.75" width="120" height="360" as="geometry" />
        </mxCell>
        <mxCell id="aamSZfilBb_t0S4ZkZF5-16" style="edgeStyle=orthogonalEdgeStyle;rounded=0;orthogonalLoop=1;jettySize=auto;html=1;exitX=0;exitY=0.5;exitDx=0;exitDy=0;entryX=0.5;entryY=0;entryDx=0;entryDy=0;fontSize=12;endSize=6;strokeColor=#FF0000;" parent="1" source="eQRcpBfi1UONhJg_L3Pk-3" target="aamSZfilBb_t0S4ZkZF5-8" edge="1">
          <mxGeometry relative="1" as="geometry">
            <Array as="points">
              <mxPoint x="330" y="330" />
              <mxPoint x="200" y="330" />
            </Array>
          </mxGeometry>
        </mxCell>
        <mxCell id="eQRcpBfi1UONhJg_L3Pk-3" value="" style="rounded=1;whiteSpace=wrap;html=1;dashed=1;" parent="1" vertex="1">
          <mxGeometry x="330" y="119" width="350" height="361" as="geometry" />
        </mxCell>
        <mxCell id="eQRcpBfi1UONhJg_L3Pk-4" style="edgeStyle=orthogonalEdgeStyle;rounded=0;orthogonalLoop=1;jettySize=auto;html=1;exitX=1;exitY=0.5;exitDx=0;exitDy=0;entryX=0;entryY=0.5;entryDx=0;entryDy=0;fontSize=12;strokeColor=#FF0000;" parent="1" source="eQRcpBfi1UONhJg_L3Pk-7" target="eQRcpBfi1UONhJg_L3Pk-13" edge="1">
          <mxGeometry relative="1" as="geometry" />
        </mxCell>
        <mxCell id="eQRcpBfi1UONhJg_L3Pk-5" value="策略&lt;br&gt;获取" style="edgeLabel;html=1;align=center;verticalAlign=middle;resizable=0;points=[];fontSize=12;" parent="eQRcpBfi1UONhJg_L3Pk-4" vertex="1" connectable="0">
          <mxGeometry x="-0.3061" y="-1" relative="1" as="geometry">
            <mxPoint x="4" as="offset" />
          </mxGeometry>
        </mxCell>
        <mxCell id="eQRcpBfi1UONhJg_L3Pk-7" value="" style="rounded=1;whiteSpace=wrap;html=1;dashed=1;" parent="1" vertex="1">
          <mxGeometry x="355" y="147" width="166" height="310" as="geometry" />
        </mxCell>
        <mxCell id="aamSZfilBb_t0S4ZkZF5-13" style="edgeStyle=orthogonalEdgeStyle;rounded=0;orthogonalLoop=1;jettySize=auto;html=1;exitX=1;exitY=0.5;exitDx=0;exitDy=0;entryX=0;entryY=0.5;entryDx=0;entryDy=0;fontSize=12;endSize=6;strokeColor=#FF0000;" parent="1" source="eQRcpBfi1UONhJg_L3Pk-11" target="aamSZfilBb_t0S4ZkZF5-5" edge="1">
          <mxGeometry relative="1" as="geometry" />
        </mxCell>
        <mxCell id="eQRcpBfi1UONhJg_L3Pk-11" value="prodinit" style="rounded=1;whiteSpace=wrap;html=1;" parent="1" vertex="1">
          <mxGeometry x="-36" y="150.75" width="100" height="40" as="geometry" />
        </mxCell>
        <mxCell id="wNGw_5Tj4TRR0GtH1Y9w-3" style="edgeStyle=orthogonalEdgeStyle;rounded=0;orthogonalLoop=1;jettySize=auto;html=1;exitX=1;exitY=0.5;exitDx=0;exitDy=0;entryX=0;entryY=0.5;entryDx=0;entryDy=0;entryPerimeter=0;fontSize=12;endSize=6;strokeColor=#FF0000;" parent="1" source="eQRcpBfi1UONhJg_L3Pk-13" target="wNGw_5Tj4TRR0GtH1Y9w-1" edge="1">
          <mxGeometry relative="1" as="geometry" />
        </mxCell>
        <mxCell id="eQRcpBfi1UONhJg_L3Pk-13" value="活动策略&lt;br&gt;获取模块" style="whiteSpace=wrap;html=1;aspect=fixed;strokeWidth=3;labelBackgroundColor=default;fillColor=#FFF2CC;opacity=50;fillStyle=hatch;" parent="1" vertex="1">
          <mxGeometry x="570" y="252" width="100" height="100" as="geometry" />
        </mxCell>
        <mxCell id="eQRcpBfi1UONhJg_L3Pk-14" value="活动匹配" style="rounded=1;whiteSpace=wrap;html=1;" parent="1" vertex="1">
          <mxGeometry x="818.5" y="240" width="95" height="40" as="geometry" />
        </mxCell>
        <mxCell id="eQRcpBfi1UONhJg_L3Pk-17" value="活动查询" style="rounded=1;whiteSpace=wrap;html=1;" parent="1" vertex="1">
          <mxGeometry x="818.5" y="169" width="95" height="40" as="geometry" />
        </mxCell>
        <mxCell id="eQRcpBfi1UONhJg_L3Pk-18" style="edgeStyle=orthogonalEdgeStyle;rounded=0;orthogonalLoop=1;jettySize=auto;html=1;exitX=0.5;exitY=0.5;exitDx=0;exitDy=0;exitPerimeter=0;entryX=0;entryY=0.5;entryDx=0;entryDy=0;strokeColor=#000033;" parent="1" source="eQRcpBfi1UONhJg_L3Pk-20" target="eQRcpBfi1UONhJg_L3Pk-11" edge="1">
          <mxGeometry relative="1" as="geometry" />
        </mxCell>
        <mxCell id="eQRcpBfi1UONhJg_L3Pk-19" value="0" style="edgeLabel;html=1;align=center;verticalAlign=middle;resizable=0;points=[];" parent="eQRcpBfi1UONhJg_L3Pk-18" vertex="1" connectable="0">
          <mxGeometry x="-0.3443" y="3" relative="1" as="geometry">
            <mxPoint y="1" as="offset" />
          </mxGeometry>
        </mxCell>
        <mxCell id="eQRcpBfi1UONhJg_L3Pk-20" value="Actor" style="shape=umlActor;verticalLabelPosition=bottom;verticalAlign=top;html=1;outlineConnect=0;rounded=0;shadow=1;sketch=1;strokeColor=#000033;strokeWidth=2;fillColor=none;" parent="1" vertex="1">
          <mxGeometry x="-100" y="140.75" width="30" height="60" as="geometry" />
        </mxCell>
        <mxCell id="eQRcpBfi1UONhJg_L3Pk-21" value="webx" style="text;html=1;strokeColor=none;fillColor=none;align=center;verticalAlign=middle;whiteSpace=wrap;rounded=0;shadow=1;sketch=1;fontSize=14;" parent="1" vertex="1">
          <mxGeometry x="-16" y="89.75" width="60" height="30" as="geometry" />
        </mxCell>
        <mxCell id="eQRcpBfi1UONhJg_L3Pk-22" value="秒杀" style="rounded=1;whiteSpace=wrap;html=1;sketch=1;" parent="1" vertex="1">
          <mxGeometry x="383" y="169" width="110" height="40" as="geometry" />
        </mxCell>
        <mxCell id="eQRcpBfi1UONhJg_L3Pk-23" value="日常领券" style="rounded=1;whiteSpace=wrap;html=1;sketch=1;" parent="1" vertex="1">
          <mxGeometry x="383" y="230" width="110" height="40" as="geometry" />
        </mxCell>
        <mxCell id="eQRcpBfi1UONhJg_L3Pk-24" value="助力" style="rounded=1;whiteSpace=wrap;html=1;sketch=1;" parent="1" vertex="1">
          <mxGeometry x="383" y="288" width="110" height="40" as="geometry" />
        </mxCell>
        <mxCell id="eQRcpBfi1UONhJg_L3Pk-25" value="抽奖" style="rounded=1;whiteSpace=wrap;html=1;sketch=1;" parent="1" vertex="1">
          <mxGeometry x="383" y="400" width="110" height="40" as="geometry" />
        </mxCell>
        <mxCell id="eQRcpBfi1UONhJg_L3Pk-26" value="兑换券" style="rounded=1;whiteSpace=wrap;html=1;sketch=1;" parent="1" vertex="1">
          <mxGeometry x="383" y="344" width="110" height="40" as="geometry" />
        </mxCell>
        <mxCell id="eQRcpBfi1UONhJg_L3Pk-27" value="janitor" style="text;html=1;strokeColor=none;fillColor=none;align=center;verticalAlign=middle;whiteSpace=wrap;rounded=0;shadow=1;sketch=1;fontSize=14;" parent="1" vertex="1">
          <mxGeometry x="475" y="89" width="60" height="30" as="geometry" />
        </mxCell>
        <mxCell id="eQRcpBfi1UONhJg_L3Pk-28" value="aps" style="text;html=1;strokeColor=none;fillColor=none;align=center;verticalAlign=middle;whiteSpace=wrap;rounded=0;shadow=1;sketch=1;fontSize=14;" parent="1" vertex="1">
          <mxGeometry x="823.75" y="89" width="81.5" height="30" as="geometry" />
        </mxCell>
        <mxCell id="eQRcpBfi1UONhJg_L3Pk-31" value="产品初始化" style="text;html=1;strokeColor=none;fillColor=none;align=center;verticalAlign=middle;whiteSpace=wrap;rounded=0;shadow=1;glass=1;labelBackgroundColor=#FFCE9F;sketch=1;fillStyle=hatch;fontSize=12;opacity=50;" parent="1" vertex="1">
          <mxGeometry x="403" y="120" width="72" height="30" as="geometry" />
        </mxCell>
        <mxCell id="wNGw_5Tj4TRR0GtH1Y9w-6" style="edgeStyle=orthogonalEdgeStyle;rounded=0;orthogonalLoop=1;jettySize=auto;html=1;fontSize=12;endSize=6;strokeColor=#FF0000;" parent="1" target="eQRcpBfi1UONhJg_L3Pk-1" edge="1">
          <mxGeometry relative="1" as="geometry">
            <mxPoint x="764" y="302.0526315789475" as="sourcePoint" />
          </mxGeometry>
        </mxCell>
        <mxCell id="wNGw_5Tj4TRR0GtH1Y9w-1" value="aps-sdk" style="html=1;whiteSpace=wrap;aspect=fixed;shape=isoRectangle;strokeColor=#FF0000;strokeWidth=2;sketch=1;shadow=1;" parent="1" vertex="1">
          <mxGeometry x="691" y="275" width="90" height="54" as="geometry" />
        </mxCell>
        <mxCell id="wNGw_5Tj4TRR0GtH1Y9w-7" value="分享物料" style="rounded=1;whiteSpace=wrap;html=1;" parent="1" vertex="1">
          <mxGeometry x="818.5" y="381" width="95" height="40" as="geometry" />
        </mxCell>
        <mxCell id="wNGw_5Tj4TRR0GtH1Y9w-8" value="静态物料" style="rounded=1;whiteSpace=wrap;html=1;" parent="1" vertex="1">
          <mxGeometry x="818.5" y="310" width="95" height="40" as="geometry" />
        </mxCell>
        <mxCell id="aamSZfilBb_t0S4ZkZF5-3" style="edgeStyle=orthogonalEdgeStyle;rounded=0;orthogonalLoop=1;jettySize=auto;html=1;exitX=0.5;exitY=1;exitDx=0;exitDy=0;entryX=0.5;entryY=0;entryDx=0;entryDy=0;fontSize=12;strokeColor=#000033;" parent="1" source="aamSZfilBb_t0S4ZkZF5-5" target="aamSZfilBb_t0S4ZkZF5-7" edge="1">
          <mxGeometry relative="1" as="geometry" />
        </mxCell>
        <mxCell id="aamSZfilBb_t0S4ZkZF5-4" value="2" style="edgeLabel;html=1;align=center;verticalAlign=middle;resizable=0;points=[];fontSize=12;" parent="aamSZfilBb_t0S4ZkZF5-3" vertex="1" connectable="0">
          <mxGeometry x="-0.0968" relative="1" as="geometry">
            <mxPoint as="offset" />
          </mxGeometry>
        </mxCell>
        <mxCell id="aamSZfilBb_t0S4ZkZF5-5" value="" style="rounded=1;whiteSpace=wrap;html=1;" parent="1" vertex="1">
          <mxGeometry x="137" y="140" width="130" height="90" as="geometry" />
        </mxCell>
        <mxCell id="aamSZfilBb_t0S4ZkZF5-6" value="aps-proxy" style="text;html=1;strokeColor=none;fillColor=none;align=center;verticalAlign=middle;whiteSpace=wrap;rounded=0;shadow=1;sketch=1;fontSize=14;" parent="1" vertex="1">
          <mxGeometry x="162.5" y="89" width="80" height="30" as="geometry" />
        </mxCell>
        <mxCell id="aamSZfilBb_t0S4ZkZF5-18" style="edgeStyle=orthogonalEdgeStyle;rounded=0;orthogonalLoop=1;jettySize=auto;html=1;exitX=1;exitY=0.5;exitDx=0;exitDy=0;entryX=-0.006;entryY=0.462;entryDx=0;entryDy=0;entryPerimeter=0;fontSize=12;endSize=6;strokeColor=#FF0000;" parent="1" source="aamSZfilBb_t0S4ZkZF5-7" target="eQRcpBfi1UONhJg_L3Pk-3" edge="1">
          <mxGeometry relative="1" as="geometry" />
        </mxCell>
        <mxCell id="aamSZfilBb_t0S4ZkZF5-7" value="prodinit" style="rounded=1;whiteSpace=wrap;html=1;" parent="1" vertex="1">
          <mxGeometry x="137" y="261" width="130" height="48.5" as="geometry" />
        </mxCell>
        <mxCell id="aamSZfilBb_t0S4ZkZF5-15" style="edgeStyle=orthogonalEdgeStyle;rounded=0;orthogonalLoop=1;jettySize=auto;html=1;exitX=1;exitY=0.5;exitDx=0;exitDy=0;entryX=0.514;entryY=0.94;entryDx=0;entryDy=0;entryPerimeter=0;fontSize=12;endSize=6;strokeColor=#FF0000;" parent="1" source="aamSZfilBb_t0S4ZkZF5-8" target="wNGw_5Tj4TRR0GtH1Y9w-1" edge="1">
          <mxGeometry relative="1" as="geometry">
            <Array as="points">
              <mxPoint x="300" y="400" />
              <mxPoint x="300" y="490" />
              <mxPoint x="737" y="490" />
            </Array>
          </mxGeometry>
        </mxCell>
        <mxCell id="aamSZfilBb_t0S4ZkZF5-19" style="edgeStyle=orthogonalEdgeStyle;rounded=0;orthogonalLoop=1;jettySize=auto;html=1;exitX=0;exitY=0.5;exitDx=0;exitDy=0;entryX=0.5;entryY=1;entryDx=0;entryDy=0;fontSize=12;endSize=6;strokeColor=#FF0000;" parent="1" source="aamSZfilBb_t0S4ZkZF5-8" target="eQRcpBfi1UONhJg_L3Pk-11" edge="1">
          <mxGeometry relative="1" as="geometry" />
        </mxCell>
        <mxCell id="aamSZfilBb_t0S4ZkZF5-8" value="" style="rounded=1;whiteSpace=wrap;html=1;" parent="1" vertex="1">
          <mxGeometry x="135" y="340" width="130" height="120" as="geometry" />
        </mxCell>
        <mxCell id="aamSZfilBb_t0S4ZkZF5-9" value="preinit1" style="rounded=1;whiteSpace=wrap;html=1;" parent="1" vertex="1">
          <mxGeometry x="151" y="155" width="103" height="25" as="geometry" />
        </mxCell>
        <mxCell id="aamSZfilBb_t0S4ZkZF5-10" value="preinit2" style="rounded=1;whiteSpace=wrap;html=1;" parent="1" vertex="1">
          <mxGeometry x="151" y="192.5" width="103" height="25" as="geometry" />
        </mxCell>
        <mxCell id="aamSZfilBb_t0S4ZkZF5-11" value="content-aggregate" style="rounded=1;whiteSpace=wrap;html=1;" parent="1" vertex="1">
          <mxGeometry x="148.5" y="367.5" width="103" height="25" as="geometry" />
        </mxCell>
        <mxCell id="aamSZfilBb_t0S4ZkZF5-12" value="share-aggregate" style="rounded=1;whiteSpace=wrap;html=1;" parent="1" vertex="1">
          <mxGeometry x="148.5" y="415.5" width="103" height="25" as="geometry" />
        </mxCell>
      </root>
    </mxGraphModel>
  </diagram>
  <diagram id="cHpOdPOqua50htXkSqTM" name="客企">
    <mxGraphModel dx="2261" dy="771" grid="1" gridSize="10" guides="1" tooltips="1" connect="1" arrows="1" fold="1" page="1" pageScale="1" pageWidth="827" pageHeight="1169" math="0" shadow="0">
      <root>
        <mxCell id="0" />
        <mxCell id="1" parent="0" />
        <mxCell id="Gw0LCNNlkxq3Ce2adTbY-5" value="" style="rounded=0;whiteSpace=wrap;html=1;fillColor=none;" vertex="1" parent="1">
          <mxGeometry x="380" y="60" width="340" height="180" as="geometry" />
        </mxCell>
        <mxCell id="Gw0LCNNlkxq3Ce2adTbY-2" value="" style="rounded=0;whiteSpace=wrap;html=1;fillColor=none;dashed=1;dashPattern=8 8;" vertex="1" parent="1">
          <mxGeometry x="40" y="44" width="720" height="400" as="geometry" />
        </mxCell>
        <mxCell id="Gw0LCNNlkxq3Ce2adTbY-21" value="" style="rounded=0;whiteSpace=wrap;html=1;fillColor=#f8cecc;strokeColor=#b85450;opacity=60;" vertex="1" parent="1">
          <mxGeometry x="570" y="70" width="140" height="160" as="geometry" />
        </mxCell>
        <mxCell id="Gw0LCNNlkxq3Ce2adTbY-4" value="" style="rounded=0;whiteSpace=wrap;html=1;fillColor=#f8cecc;strokeColor=#b85450;opacity=50;" vertex="1" parent="1">
          <mxGeometry x="80" y="60" width="240" height="180" as="geometry" />
        </mxCell>
        <mxCell id="Gw0LCNNlkxq3Ce2adTbY-51" style="edgeStyle=orthogonalEdgeStyle;rounded=0;orthogonalLoop=1;jettySize=auto;html=1;exitX=1;exitY=0.5;exitDx=0;exitDy=0;entryX=0;entryY=0.5;entryDx=0;entryDy=0;" edge="1" parent="1" source="Gw0LCNNlkxq3Ce2adTbY-6" target="Gw0LCNNlkxq3Ce2adTbY-15">
          <mxGeometry relative="1" as="geometry" />
        </mxCell>
        <mxCell id="Gw0LCNNlkxq3Ce2adTbY-6" value="OPEN&lt;br&gt;API" style="rounded=0;whiteSpace=wrap;html=1;fillColor=none;" vertex="1" parent="1">
          <mxGeometry x="99" y="80" width="50" height="140" as="geometry" />
        </mxCell>
        <mxCell id="Gw0LCNNlkxq3Ce2adTbY-36" style="edgeStyle=orthogonalEdgeStyle;rounded=0;orthogonalLoop=1;jettySize=auto;html=1;exitX=1;exitY=0.5;exitDx=0;exitDy=0;entryX=0;entryY=0.5;entryDx=0;entryDy=0;" edge="1" parent="1" source="Gw0LCNNlkxq3Ce2adTbY-7" target="Gw0LCNNlkxq3Ce2adTbY-8">
          <mxGeometry relative="1" as="geometry" />
        </mxCell>
        <mxCell id="Gw0LCNNlkxq3Ce2adTbY-7" value="" style="rounded=0;whiteSpace=wrap;html=1;fillColor=#fff2cc;strokeColor=#d6b656;opacity=70;" vertex="1" parent="1">
          <mxGeometry x="80" y="280" width="120" height="150" as="geometry" />
        </mxCell>
        <mxCell id="Gw0LCNNlkxq3Ce2adTbY-8" value="" style="rounded=0;whiteSpace=wrap;html=1;fillColor=#fff2cc;strokeColor=#d6b656;opacity=70;" vertex="1" parent="1">
          <mxGeometry x="240" y="280" width="120" height="150" as="geometry" />
        </mxCell>
        <mxCell id="Gw0LCNNlkxq3Ce2adTbY-39" style="edgeStyle=orthogonalEdgeStyle;rounded=0;orthogonalLoop=1;jettySize=auto;html=1;exitX=0.5;exitY=0;exitDx=0;exitDy=0;entryX=0.5;entryY=1;entryDx=0;entryDy=0;" edge="1" parent="1" source="Gw0LCNNlkxq3Ce2adTbY-9" target="Gw0LCNNlkxq3Ce2adTbY-16">
          <mxGeometry relative="1" as="geometry" />
        </mxCell>
        <mxCell id="Gw0LCNNlkxq3Ce2adTbY-9" value="APS-SDK" style="rhombus;whiteSpace=wrap;html=1;fillColor=#fff2cc;strokeColor=#d6b656;opacity=70;" vertex="1" parent="1">
          <mxGeometry x="420" y="260" width="80" height="80" as="geometry" />
        </mxCell>
        <mxCell id="Gw0LCNNlkxq3Ce2adTbY-10" value="" style="rounded=0;whiteSpace=wrap;html=1;fillColor=none;" vertex="1" parent="1">
          <mxGeometry x="380" y="360" width="340" height="70" as="geometry" />
        </mxCell>
        <mxCell id="Gw0LCNNlkxq3Ce2adTbY-44" style="edgeStyle=orthogonalEdgeStyle;rounded=0;orthogonalLoop=1;jettySize=auto;html=1;exitX=0.5;exitY=0.5;exitDx=0;exitDy=0;exitPerimeter=0;entryX=0;entryY=0.5;entryDx=0;entryDy=0;" edge="1" parent="1" source="Gw0LCNNlkxq3Ce2adTbY-12" target="Gw0LCNNlkxq3Ce2adTbY-7">
          <mxGeometry relative="1" as="geometry" />
        </mxCell>
        <mxCell id="Gw0LCNNlkxq3Ce2adTbY-12" value="Actor" style="shape=umlActor;verticalLabelPosition=bottom;verticalAlign=top;html=1;outlineConnect=0;fillColor=none;" vertex="1" parent="1">
          <mxGeometry x="-55" y="325" width="30" height="60" as="geometry" />
        </mxCell>
        <mxCell id="Gw0LCNNlkxq3Ce2adTbY-48" style="edgeStyle=orthogonalEdgeStyle;rounded=0;orthogonalLoop=1;jettySize=auto;html=1;exitX=0.5;exitY=1;exitDx=0;exitDy=0;entryX=0.5;entryY=0;entryDx=0;entryDy=0;" edge="1" parent="1" source="Gw0LCNNlkxq3Ce2adTbY-13" target="Gw0LCNNlkxq3Ce2adTbY-14">
          <mxGeometry relative="1" as="geometry" />
        </mxCell>
        <mxCell id="Gw0LCNNlkxq3Ce2adTbY-13" value="产品管理" style="rounded=0;whiteSpace=wrap;html=1;fillColor=none;" vertex="1" parent="1">
          <mxGeometry x="180" y="80" width="120" height="40" as="geometry" />
        </mxCell>
        <mxCell id="Gw0LCNNlkxq3Ce2adTbY-49" style="edgeStyle=orthogonalEdgeStyle;rounded=0;orthogonalLoop=1;jettySize=auto;html=1;exitX=0.5;exitY=1;exitDx=0;exitDy=0;entryX=0.5;entryY=0;entryDx=0;entryDy=0;" edge="1" parent="1" source="Gw0LCNNlkxq3Ce2adTbY-14" target="Gw0LCNNlkxq3Ce2adTbY-15">
          <mxGeometry relative="1" as="geometry" />
        </mxCell>
        <mxCell id="Gw0LCNNlkxq3Ce2adTbY-14" value="XAK管理" style="rounded=0;whiteSpace=wrap;html=1;fillColor=none;" vertex="1" parent="1">
          <mxGeometry x="180" y="130" width="120" height="40" as="geometry" />
        </mxCell>
        <mxCell id="Gw0LCNNlkxq3Ce2adTbY-43" style="edgeStyle=orthogonalEdgeStyle;rounded=0;orthogonalLoop=1;jettySize=auto;html=1;exitX=1;exitY=0.5;exitDx=0;exitDy=0;entryX=0;entryY=0.5;entryDx=0;entryDy=0;" edge="1" parent="1" source="Gw0LCNNlkxq3Ce2adTbY-15" target="Gw0LCNNlkxq3Ce2adTbY-17">
          <mxGeometry relative="1" as="geometry" />
        </mxCell>
        <mxCell id="Gw0LCNNlkxq3Ce2adTbY-15" value="策略管理" style="rounded=0;whiteSpace=wrap;html=1;fillColor=none;" vertex="1" parent="1">
          <mxGeometry x="180" y="180" width="120" height="40" as="geometry" />
        </mxCell>
        <mxCell id="Gw0LCNNlkxq3Ce2adTbY-16" value="配置策略&lt;br&gt;输出模块" style="rounded=0;whiteSpace=wrap;html=1;fillColor=#fff2cc;strokeColor=#d6b656;opacity=70;" vertex="1" parent="1">
          <mxGeometry x="400" y="160" width="120" height="60" as="geometry" />
        </mxCell>
        <mxCell id="Gw0LCNNlkxq3Ce2adTbY-33" style="edgeStyle=orthogonalEdgeStyle;rounded=0;orthogonalLoop=1;jettySize=auto;html=1;exitX=1;exitY=0.5;exitDx=0;exitDy=0;entryX=0;entryY=0.5;entryDx=0;entryDy=0;" edge="1" parent="1" source="Gw0LCNNlkxq3Ce2adTbY-17" target="Gw0LCNNlkxq3Ce2adTbY-19">
          <mxGeometry relative="1" as="geometry" />
        </mxCell>
        <mxCell id="Gw0LCNNlkxq3Ce2adTbY-17" value="配置管理" style="rounded=0;whiteSpace=wrap;html=1;fillColor=#f8cecc;strokeColor=#b85450;opacity=60;" vertex="1" parent="1">
          <mxGeometry x="400" y="80" width="120" height="60" as="geometry" />
        </mxCell>
        <mxCell id="Gw0LCNNlkxq3Ce2adTbY-18" value="活动内容" style="rounded=0;whiteSpace=wrap;html=1;fillColor=none;" vertex="1" parent="1">
          <mxGeometry x="580" y="80" width="120" height="40" as="geometry" />
        </mxCell>
        <mxCell id="Gw0LCNNlkxq3Ce2adTbY-19" value="分享物料" style="rounded=0;whiteSpace=wrap;html=1;fillColor=none;" vertex="1" parent="1">
          <mxGeometry x="580" y="130" width="120" height="40" as="geometry" />
        </mxCell>
        <mxCell id="Gw0LCNNlkxq3Ce2adTbY-34" style="edgeStyle=orthogonalEdgeStyle;rounded=0;orthogonalLoop=1;jettySize=auto;html=1;exitX=0.5;exitY=1;exitDx=0;exitDy=0;entryX=0.5;entryY=0;entryDx=0;entryDy=0;" edge="1" parent="1" source="Gw0LCNNlkxq3Ce2adTbY-20" target="Gw0LCNNlkxq3Ce2adTbY-22">
          <mxGeometry relative="1" as="geometry" />
        </mxCell>
        <mxCell id="Gw0LCNNlkxq3Ce2adTbY-20" value="活动策略" style="rounded=0;whiteSpace=wrap;html=1;fillColor=none;" vertex="1" parent="1">
          <mxGeometry x="580" y="180" width="120" height="40" as="geometry" />
        </mxCell>
        <mxCell id="Gw0LCNNlkxq3Ce2adTbY-35" style="edgeStyle=orthogonalEdgeStyle;rounded=0;orthogonalLoop=1;jettySize=auto;html=1;exitX=0.5;exitY=1;exitDx=0;exitDy=0;entryX=0.5;entryY=0;entryDx=0;entryDy=0;" edge="1" parent="1" source="Gw0LCNNlkxq3Ce2adTbY-22" target="Gw0LCNNlkxq3Ce2adTbY-23">
          <mxGeometry relative="1" as="geometry" />
        </mxCell>
        <mxCell id="Gw0LCNNlkxq3Ce2adTbY-22" value="插件配置" style="rhombus;whiteSpace=wrap;html=1;fillColor=#f8cecc;strokeColor=#b85450;opacity=60;" vertex="1" parent="1">
          <mxGeometry x="600" y="260" width="80" height="80" as="geometry" />
        </mxCell>
        <mxCell id="Gw0LCNNlkxq3Ce2adTbY-23" value="策略校验" style="rounded=0;whiteSpace=wrap;html=1;fillColor=#f8cecc;strokeColor=#b85450;opacity=60;" vertex="1" parent="1">
          <mxGeometry x="580" y="375" width="120" height="40" as="geometry" />
        </mxCell>
        <mxCell id="Gw0LCNNlkxq3Ce2adTbY-38" style="edgeStyle=orthogonalEdgeStyle;rounded=0;orthogonalLoop=1;jettySize=auto;html=1;exitX=0.5;exitY=0;exitDx=0;exitDy=0;entryX=0.5;entryY=1;entryDx=0;entryDy=0;" edge="1" parent="1" source="Gw0LCNNlkxq3Ce2adTbY-24" target="Gw0LCNNlkxq3Ce2adTbY-9">
          <mxGeometry relative="1" as="geometry" />
        </mxCell>
        <mxCell id="Gw0LCNNlkxq3Ce2adTbY-24" value="活动主页接口" style="rounded=0;whiteSpace=wrap;html=1;fillColor=#fff2cc;strokeColor=#d6b656;opacity=70;" vertex="1" parent="1">
          <mxGeometry x="400" y="375" width="120" height="40" as="geometry" />
        </mxCell>
        <mxCell id="Gw0LCNNlkxq3Ce2adTbY-45" style="edgeStyle=orthogonalEdgeStyle;rounded=0;orthogonalLoop=1;jettySize=auto;html=1;exitX=1;exitY=0.5;exitDx=0;exitDy=0;entryX=0;entryY=0.5;entryDx=0;entryDy=0;" edge="1" parent="1" source="Gw0LCNNlkxq3Ce2adTbY-25" target="Gw0LCNNlkxq3Ce2adTbY-9">
          <mxGeometry relative="1" as="geometry" />
        </mxCell>
        <mxCell id="Gw0LCNNlkxq3Ce2adTbY-25" value="物料聚合" style="rounded=0;whiteSpace=wrap;html=1;fillColor=none;" vertex="1" parent="1">
          <mxGeometry x="250" y="300" width="100" height="40" as="geometry" />
        </mxCell>
        <mxCell id="Gw0LCNNlkxq3Ce2adTbY-37" style="edgeStyle=orthogonalEdgeStyle;rounded=0;orthogonalLoop=1;jettySize=auto;html=1;exitX=1;exitY=0.5;exitDx=0;exitDy=0;entryX=0;entryY=0.5;entryDx=0;entryDy=0;" edge="1" parent="1" source="Gw0LCNNlkxq3Ce2adTbY-26" target="Gw0LCNNlkxq3Ce2adTbY-24">
          <mxGeometry relative="1" as="geometry" />
        </mxCell>
        <mxCell id="Gw0LCNNlkxq3Ce2adTbY-26" value="product/init" style="rounded=0;whiteSpace=wrap;html=1;fillColor=none;" vertex="1" parent="1">
          <mxGeometry x="250" y="375" width="100" height="40" as="geometry" />
        </mxCell>
        <mxCell id="Gw0LCNNlkxq3Ce2adTbY-27" value="分享物料" style="rounded=0;whiteSpace=wrap;html=1;fillColor=none;" vertex="1" parent="1">
          <mxGeometry x="90" y="300" width="100" height="40" as="geometry" />
        </mxCell>
        <mxCell id="Gw0LCNNlkxq3Ce2adTbY-28" value="product/init" style="rounded=0;whiteSpace=wrap;html=1;fillColor=none;" vertex="1" parent="1">
          <mxGeometry x="90" y="375" width="100" height="40" as="geometry" />
        </mxCell>
        <mxCell id="Gw0LCNNlkxq3Ce2adTbY-47" style="edgeStyle=orthogonalEdgeStyle;rounded=0;orthogonalLoop=1;jettySize=auto;html=1;exitX=1;exitY=0.5;exitDx=0;exitDy=0;entryX=0;entryY=0.5;entryDx=0;entryDy=0;" edge="1" parent="1" source="Gw0LCNNlkxq3Ce2adTbY-41" target="Gw0LCNNlkxq3Ce2adTbY-6">
          <mxGeometry relative="1" as="geometry" />
        </mxCell>
        <mxCell id="Gw0LCNNlkxq3Ce2adTbY-41" value="鸿鹄" style="rounded=0;whiteSpace=wrap;html=1;fillColor=#f8cecc;strokeColor=#b85450;opacity=50;" vertex="1" parent="1">
          <mxGeometry x="-65" y="80" width="50" height="140" as="geometry" />
        </mxCell>
        <mxCell id="Gw0LCNNlkxq3Ce2adTbY-52" value="webx-mis" style="text;html=1;strokeColor=none;fillColor=none;align=center;verticalAlign=middle;whiteSpace=wrap;rounded=0;" vertex="1" parent="1">
          <mxGeometry x="262" y="53" width="60" height="30" as="geometry" />
        </mxCell>
        <mxCell id="Gw0LCNNlkxq3Ce2adTbY-53" value="aps" style="text;html=1;strokeColor=none;fillColor=none;align=center;verticalAlign=middle;whiteSpace=wrap;rounded=0;" vertex="1" parent="1">
          <mxGeometry x="364" y="53" width="60" height="30" as="geometry" />
        </mxCell>
        <mxCell id="Gw0LCNNlkxq3Ce2adTbY-54" value="aps-proxy" style="text;html=1;strokeColor=none;fillColor=none;align=center;verticalAlign=middle;whiteSpace=wrap;rounded=0;" vertex="1" parent="1">
          <mxGeometry x="303" y="272" width="60" height="30" as="geometry" />
        </mxCell>
        <mxCell id="Gw0LCNNlkxq3Ce2adTbY-56" value="webx对外服务" style="text;html=1;strokeColor=none;fillColor=none;align=center;verticalAlign=middle;whiteSpace=wrap;rounded=0;" vertex="1" parent="1">
          <mxGeometry x="119" y="273" width="80" height="30" as="geometry" />
        </mxCell>
        <mxCell id="Gw0LCNNlkxq3Ce2adTbY-57" value="Lego" style="text;html=1;strokeColor=none;fillColor=none;align=center;verticalAlign=middle;whiteSpace=wrap;rounded=0;" vertex="1" parent="1">
          <mxGeometry x="666" y="407" width="80" height="30" as="geometry" />
        </mxCell>
        <mxCell id="Gw0LCNNlkxq3Ce2adTbY-58" value="策略配置流程" style="rounded=0;whiteSpace=wrap;html=1;fillColor=#f8cecc;strokeColor=#b85450;opacity=50;" vertex="1" parent="1">
          <mxGeometry x="781" y="44" width="80" height="40" as="geometry" />
        </mxCell>
        <mxCell id="Gw0LCNNlkxq3Ce2adTbY-59" value="C端用户访问流程" style="rounded=0;whiteSpace=wrap;html=1;fillColor=#fff2cc;strokeColor=#d6b656;opacity=50;" vertex="1" parent="1">
          <mxGeometry x="781" y="90" width="80" height="40" as="geometry" />
        </mxCell>
      </root>
    </mxGraphModel>
  </diagram>
  <diagram id="I3asqrNW4xs_wB5MsIlZ" name="lego_带prodkey">
    <mxGraphModel dx="1062" dy="571" grid="1" gridSize="10" guides="1" tooltips="1" connect="1" arrows="1" fold="1" page="1" pageScale="1" pageWidth="827" pageHeight="1169" math="0" shadow="0">
      <root>
        <mxCell id="0" />
        <mxCell id="1" parent="0" />
        <mxCell id="_MMB3oEdvKMZ7QEuLCPY-50" style="edgeStyle=orthogonalEdgeStyle;rounded=0;orthogonalLoop=1;jettySize=auto;html=1;exitX=1;exitY=0.5;exitDx=0;exitDy=0;entryX=0;entryY=0.5;entryDx=0;entryDy=0;fillColor=#ffe6cc;strokeColor=#d79b00;" edge="1" parent="1" source="_MMB3oEdvKMZ7QEuLCPY-1" target="_MMB3oEdvKMZ7QEuLCPY-15">
          <mxGeometry relative="1" as="geometry">
            <Array as="points">
              <mxPoint x="180" y="220" />
              <mxPoint x="180" y="74" />
            </Array>
          </mxGeometry>
        </mxCell>
        <mxCell id="_MMB3oEdvKMZ7QEuLCPY-1" value="活动发布" style="rounded=1;whiteSpace=wrap;html=1;fillColor=none;opacity=60;" vertex="1" parent="1">
          <mxGeometry x="90" y="40" width="71" height="360" as="geometry" />
        </mxCell>
        <mxCell id="_MMB3oEdvKMZ7QEuLCPY-2" value="" style="rounded=1;whiteSpace=wrap;html=1;fillColor=none;opacity=60;" vertex="1" parent="1">
          <mxGeometry x="200" y="40" width="480" height="160" as="geometry" />
        </mxCell>
        <mxCell id="_MMB3oEdvKMZ7QEuLCPY-3" value="" style="rounded=1;whiteSpace=wrap;html=1;fillColor=none;opacity=60;" vertex="1" parent="1">
          <mxGeometry x="200" y="260" width="200" height="140" as="geometry" />
        </mxCell>
        <mxCell id="_MMB3oEdvKMZ7QEuLCPY-4" value="" style="rounded=1;whiteSpace=wrap;html=1;fillColor=none;opacity=60;" vertex="1" parent="1">
          <mxGeometry x="480" y="320" width="200" height="80" as="geometry" />
        </mxCell>
        <mxCell id="_MMB3oEdvKMZ7QEuLCPY-30" style="edgeStyle=orthogonalEdgeStyle;rounded=0;orthogonalLoop=1;jettySize=auto;html=1;exitX=0;exitY=1;exitDx=0;exitDy=0;entryX=0.5;entryY=0;entryDx=0;entryDy=0;fillColor=#e51400;strokeColor=#B20000;" edge="1" parent="1" source="_MMB3oEdvKMZ7QEuLCPY-5" target="_MMB3oEdvKMZ7QEuLCPY-10">
          <mxGeometry relative="1" as="geometry">
            <Array as="points">
              <mxPoint x="560" y="310" />
              <mxPoint x="531" y="310" />
            </Array>
          </mxGeometry>
        </mxCell>
        <mxCell id="_MMB3oEdvKMZ7QEuLCPY-31" value="返回裂变XID" style="edgeLabel;html=1;align=center;verticalAlign=middle;resizable=0;points=[];" vertex="1" connectable="0" parent="_MMB3oEdvKMZ7QEuLCPY-30">
          <mxGeometry x="0.1005" y="1" relative="1" as="geometry">
            <mxPoint y="-7" as="offset" />
          </mxGeometry>
        </mxCell>
        <mxCell id="_MMB3oEdvKMZ7QEuLCPY-55" style="edgeStyle=orthogonalEdgeStyle;rounded=0;orthogonalLoop=1;jettySize=auto;html=1;exitX=1;exitY=0;exitDx=0;exitDy=0;entryX=0.75;entryY=1;entryDx=0;entryDy=0;fillColor=#ffe6cc;strokeColor=#d79b00;" edge="1" parent="1" source="_MMB3oEdvKMZ7QEuLCPY-5" target="_MMB3oEdvKMZ7QEuLCPY-12">
          <mxGeometry relative="1" as="geometry">
            <Array as="points">
              <mxPoint x="600" y="220" />
              <mxPoint x="617" y="220" />
            </Array>
          </mxGeometry>
        </mxCell>
        <mxCell id="_MMB3oEdvKMZ7QEuLCPY-5" value="aps-sdk" style="rhombus;whiteSpace=wrap;html=1;fillColor=none;opacity=60;" vertex="1" parent="1">
          <mxGeometry x="540" y="220" width="80" height="80" as="geometry" />
        </mxCell>
        <mxCell id="_MMB3oEdvKMZ7QEuLCPY-20" style="edgeStyle=none;rounded=0;orthogonalLoop=1;jettySize=auto;html=1;exitX=0.25;exitY=1;exitDx=0;exitDy=0;entryX=0.5;entryY=0;entryDx=0;entryDy=0;fillColor=#ffe6cc;strokeColor=#d79b00;" edge="1" parent="1" source="_MMB3oEdvKMZ7QEuLCPY-7" target="_MMB3oEdvKMZ7QEuLCPY-8">
          <mxGeometry relative="1" as="geometry" />
        </mxCell>
        <mxCell id="_MMB3oEdvKMZ7QEuLCPY-45" value="" style="edgeStyle=orthogonalEdgeStyle;rounded=0;orthogonalLoop=1;jettySize=auto;html=1;fillColor=#e51400;strokeColor=#B20000;" edge="1" parent="1" source="_MMB3oEdvKMZ7QEuLCPY-7" target="_MMB3oEdvKMZ7QEuLCPY-17">
          <mxGeometry relative="1" as="geometry">
            <Array as="points">
              <mxPoint x="300" y="239" />
              <mxPoint x="270" y="239" />
            </Array>
          </mxGeometry>
        </mxCell>
        <mxCell id="_MMB3oEdvKMZ7QEuLCPY-46" value="converted_data" style="edgeLabel;html=1;align=center;verticalAlign=middle;resizable=0;points=[];" vertex="1" connectable="0" parent="_MMB3oEdvKMZ7QEuLCPY-45">
          <mxGeometry x="-0.4237" y="-1" relative="1" as="geometry">
            <mxPoint y="-3" as="offset" />
          </mxGeometry>
        </mxCell>
        <mxCell id="_MMB3oEdvKMZ7QEuLCPY-7" value="convert接口" style="rounded=0;whiteSpace=wrap;html=1;dashed=1;dashPattern=8 8;fillColor=none;opacity=60;" vertex="1" parent="1">
          <mxGeometry x="225" y="288" width="150" height="30" as="geometry" />
        </mxCell>
        <mxCell id="_MMB3oEdvKMZ7QEuLCPY-21" style="edgeStyle=none;rounded=0;orthogonalLoop=1;jettySize=auto;html=1;exitX=1;exitY=0.5;exitDx=0;exitDy=0;entryX=0;entryY=0.5;entryDx=0;entryDy=0;" edge="1" parent="1" source="_MMB3oEdvKMZ7QEuLCPY-8" target="_MMB3oEdvKMZ7QEuLCPY-9">
          <mxGeometry relative="1" as="geometry" />
        </mxCell>
        <mxCell id="_MMB3oEdvKMZ7QEuLCPY-35" style="edgeStyle=orthogonalEdgeStyle;rounded=0;orthogonalLoop=1;jettySize=auto;html=1;exitX=0.75;exitY=0;exitDx=0;exitDy=0;entryX=0.75;entryY=1;entryDx=0;entryDy=0;fillColor=#e51400;strokeColor=#B20000;" edge="1" parent="1" source="_MMB3oEdvKMZ7QEuLCPY-8" target="_MMB3oEdvKMZ7QEuLCPY-7">
          <mxGeometry relative="1" as="geometry">
            <Array as="points">
              <mxPoint x="281" y="338" />
              <mxPoint x="338" y="338" />
            </Array>
          </mxGeometry>
        </mxCell>
        <mxCell id="_MMB3oEdvKMZ7QEuLCPY-8" value="DSL-Builder" style="rounded=0;whiteSpace=wrap;html=1;dashed=1;dashPattern=8 8;fillColor=none;opacity=60;" vertex="1" parent="1">
          <mxGeometry x="225" y="345" width="75" height="30" as="geometry" />
        </mxCell>
        <mxCell id="_MMB3oEdvKMZ7QEuLCPY-22" style="edgeStyle=none;rounded=0;orthogonalLoop=1;jettySize=auto;html=1;exitX=1;exitY=0.5;exitDx=0;exitDy=0;entryX=0;entryY=0.5;entryDx=0;entryDy=0;fillColor=#ffe6cc;strokeColor=#d79b00;" edge="1" parent="1">
          <mxGeometry relative="1" as="geometry">
            <mxPoint x="385" y="367" as="sourcePoint" />
            <mxPoint x="493" y="367" as="targetPoint" />
          </mxGeometry>
        </mxCell>
        <mxCell id="_MMB3oEdvKMZ7QEuLCPY-9" value="创建裂变活动" style="rounded=0;whiteSpace=wrap;html=1;dashed=1;dashPattern=8 8;fillColor=none;opacity=60;" vertex="1" parent="1">
          <mxGeometry x="310" y="345" width="75" height="30" as="geometry" />
        </mxCell>
        <mxCell id="_MMB3oEdvKMZ7QEuLCPY-23" style="edgeStyle=none;rounded=0;orthogonalLoop=1;jettySize=auto;html=1;exitX=1;exitY=0.75;exitDx=0;exitDy=0;entryX=0;entryY=0.75;entryDx=0;entryDy=0;fillColor=#ffe6cc;strokeColor=#d79b00;" edge="1" parent="1" source="_MMB3oEdvKMZ7QEuLCPY-10" target="_MMB3oEdvKMZ7QEuLCPY-11">
          <mxGeometry relative="1" as="geometry" />
        </mxCell>
        <mxCell id="_MMB3oEdvKMZ7QEuLCPY-33" style="edgeStyle=orthogonalEdgeStyle;rounded=0;orthogonalLoop=1;jettySize=auto;html=1;exitX=0;exitY=0.25;exitDx=0;exitDy=0;entryX=1;entryY=0.25;entryDx=0;entryDy=0;fillColor=#e51400;strokeColor=#B20000;" edge="1" parent="1" source="_MMB3oEdvKMZ7QEuLCPY-10" target="_MMB3oEdvKMZ7QEuLCPY-9">
          <mxGeometry relative="1" as="geometry" />
        </mxCell>
        <mxCell id="_MMB3oEdvKMZ7QEuLCPY-34" value="裂变活动xid" style="edgeLabel;html=1;align=center;verticalAlign=middle;resizable=0;points=[];" vertex="1" connectable="0" parent="_MMB3oEdvKMZ7QEuLCPY-33">
          <mxGeometry x="0.2407" y="1" relative="1" as="geometry">
            <mxPoint x="14" as="offset" />
          </mxGeometry>
        </mxCell>
        <mxCell id="_MMB3oEdvKMZ7QEuLCPY-10" value="params-checker" style="rounded=0;whiteSpace=wrap;html=1;dashed=1;dashPattern=8 8;fillColor=none;opacity=60;" vertex="1" parent="1">
          <mxGeometry x="493" y="345" width="75" height="30" as="geometry" />
        </mxCell>
        <mxCell id="_MMB3oEdvKMZ7QEuLCPY-25" style="edgeStyle=orthogonalEdgeStyle;rounded=0;orthogonalLoop=1;jettySize=auto;html=1;exitX=0.5;exitY=0;exitDx=0;exitDy=0;entryX=1;entryY=1;entryDx=0;entryDy=0;fillColor=#ffe6cc;strokeColor=#d79b00;" edge="1" parent="1" source="_MMB3oEdvKMZ7QEuLCPY-11" target="_MMB3oEdvKMZ7QEuLCPY-5">
          <mxGeometry relative="1" as="geometry">
            <Array as="points">
              <mxPoint x="629" y="310" />
              <mxPoint x="600" y="310" />
            </Array>
          </mxGeometry>
        </mxCell>
        <mxCell id="_MMB3oEdvKMZ7QEuLCPY-32" value="创建裂变活动" style="edgeLabel;html=1;align=center;verticalAlign=middle;resizable=0;points=[];" vertex="1" connectable="0" parent="_MMB3oEdvKMZ7QEuLCPY-25">
          <mxGeometry x="-0.0267" relative="1" as="geometry">
            <mxPoint x="1" as="offset" />
          </mxGeometry>
        </mxCell>
        <mxCell id="_MMB3oEdvKMZ7QEuLCPY-11" value="策略构造" style="rounded=0;whiteSpace=wrap;html=1;dashed=1;dashPattern=8 8;fillColor=none;opacity=60;" vertex="1" parent="1">
          <mxGeometry x="591" y="345" width="75" height="30" as="geometry" />
        </mxCell>
        <mxCell id="_MMB3oEdvKMZ7QEuLCPY-59" style="edgeStyle=orthogonalEdgeStyle;rounded=0;orthogonalLoop=1;jettySize=auto;html=1;exitX=0.75;exitY=0;exitDx=0;exitDy=0;entryX=0.75;entryY=1;entryDx=0;entryDy=0;fillColor=#ffe6cc;strokeColor=#d79b00;" edge="1" parent="1" source="_MMB3oEdvKMZ7QEuLCPY-12" target="_MMB3oEdvKMZ7QEuLCPY-13">
          <mxGeometry relative="1" as="geometry" />
        </mxCell>
        <mxCell id="_MMB3oEdvKMZ7QEuLCPY-61" style="edgeStyle=orthogonalEdgeStyle;rounded=0;orthogonalLoop=1;jettySize=auto;html=1;exitX=0.25;exitY=1;exitDx=0;exitDy=0;entryX=0;entryY=0;entryDx=0;entryDy=0;fillColor=#e51400;strokeColor=#B20000;" edge="1" parent="1" source="_MMB3oEdvKMZ7QEuLCPY-12" target="_MMB3oEdvKMZ7QEuLCPY-5">
          <mxGeometry relative="1" as="geometry" />
        </mxCell>
        <mxCell id="_MMB3oEdvKMZ7QEuLCPY-12" value="活动open-api" style="rounded=0;whiteSpace=wrap;html=1;dashed=1;dashPattern=8 8;fillColor=none;opacity=60;" vertex="1" parent="1">
          <mxGeometry x="505" y="160" width="150" height="30" as="geometry" />
        </mxCell>
        <mxCell id="_MMB3oEdvKMZ7QEuLCPY-28" style="edgeStyle=orthogonalEdgeStyle;rounded=0;orthogonalLoop=1;jettySize=auto;html=1;exitX=0;exitY=0.5;exitDx=0;exitDy=0;entryX=1;entryY=0.5;entryDx=0;entryDy=0;entryPerimeter=0;" edge="1" parent="1" source="_MMB3oEdvKMZ7QEuLCPY-13" target="_MMB3oEdvKMZ7QEuLCPY-14">
          <mxGeometry relative="1" as="geometry" />
        </mxCell>
        <mxCell id="_MMB3oEdvKMZ7QEuLCPY-60" style="edgeStyle=orthogonalEdgeStyle;rounded=0;orthogonalLoop=1;jettySize=auto;html=1;exitX=0.25;exitY=1;exitDx=0;exitDy=0;entryX=0.25;entryY=0;entryDx=0;entryDy=0;fillColor=#e51400;strokeColor=#B20000;" edge="1" parent="1" source="_MMB3oEdvKMZ7QEuLCPY-13" target="_MMB3oEdvKMZ7QEuLCPY-12">
          <mxGeometry relative="1" as="geometry" />
        </mxCell>
        <mxCell id="_MMB3oEdvKMZ7QEuLCPY-13" value="活动创建&amp;amp;发布" style="rounded=0;whiteSpace=wrap;html=1;dashed=1;dashPattern=8 8;fillColor=none;opacity=60;" vertex="1" parent="1">
          <mxGeometry x="505" y="60" width="150" height="80" as="geometry" />
        </mxCell>
        <mxCell id="_MMB3oEdvKMZ7QEuLCPY-14" value="DB" style="shape=cylinder3;whiteSpace=wrap;html=1;boundedLbl=1;backgroundOutline=1;size=15;dashed=1;dashPattern=8 8;fillColor=none;opacity=60;" vertex="1" parent="1">
          <mxGeometry x="410" y="60" width="50" height="120" as="geometry" />
        </mxCell>
        <mxCell id="_MMB3oEdvKMZ7QEuLCPY-36" style="edgeStyle=orthogonalEdgeStyle;rounded=0;orthogonalLoop=1;jettySize=auto;html=1;exitX=0.5;exitY=1;exitDx=0;exitDy=0;entryX=0.5;entryY=0;entryDx=0;entryDy=0;fillColor=#ffe6cc;strokeColor=#d79b00;" edge="1" parent="1" source="_MMB3oEdvKMZ7QEuLCPY-15" target="_MMB3oEdvKMZ7QEuLCPY-16">
          <mxGeometry relative="1" as="geometry" />
        </mxCell>
        <mxCell id="_MMB3oEdvKMZ7QEuLCPY-15" value="活动发布" style="rounded=0;whiteSpace=wrap;html=1;dashed=1;dashPattern=8 8;fillColor=none;opacity=60;" vertex="1" parent="1">
          <mxGeometry x="225" y="59" width="150" height="30" as="geometry" />
        </mxCell>
        <mxCell id="_MMB3oEdvKMZ7QEuLCPY-41" style="edgeStyle=orthogonalEdgeStyle;rounded=0;orthogonalLoop=1;jettySize=auto;html=1;exitX=0.5;exitY=1;exitDx=0;exitDy=0;entryX=0.462;entryY=-0.044;entryDx=0;entryDy=0;entryPerimeter=0;fillColor=#ffe6cc;strokeColor=#d79b00;" edge="1" parent="1" source="_MMB3oEdvKMZ7QEuLCPY-16" target="_MMB3oEdvKMZ7QEuLCPY-17">
          <mxGeometry relative="1" as="geometry">
            <Array as="points">
              <mxPoint x="300" y="150" />
              <mxPoint x="260" y="150" />
            </Array>
          </mxGeometry>
        </mxCell>
        <mxCell id="_MMB3oEdvKMZ7QEuLCPY-16" value="数据校验" style="rounded=0;whiteSpace=wrap;html=1;dashed=1;dashPattern=8 8;fillColor=none;opacity=60;" vertex="1" parent="1">
          <mxGeometry x="225" y="108" width="150" height="30" as="geometry" />
        </mxCell>
        <mxCell id="_MMB3oEdvKMZ7QEuLCPY-43" style="edgeStyle=orthogonalEdgeStyle;rounded=0;orthogonalLoop=1;jettySize=auto;html=1;exitX=0.25;exitY=1;exitDx=0;exitDy=0;entryX=0.12;entryY=0;entryDx=0;entryDy=0;entryPerimeter=0;fillColor=#ffe6cc;strokeColor=#d79b00;" edge="1" parent="1" source="_MMB3oEdvKMZ7QEuLCPY-17" target="_MMB3oEdvKMZ7QEuLCPY-7">
          <mxGeometry relative="1" as="geometry" />
        </mxCell>
        <mxCell id="_MMB3oEdvKMZ7QEuLCPY-44" value="数据&lt;br&gt;转换&lt;br&gt;接口" style="edgeLabel;html=1;align=center;verticalAlign=middle;resizable=0;points=[];" vertex="1" connectable="0" parent="_MMB3oEdvKMZ7QEuLCPY-43">
          <mxGeometry x="-0.0915" y="1" relative="1" as="geometry">
            <mxPoint y="-4" as="offset" />
          </mxGeometry>
        </mxCell>
        <mxCell id="_MMB3oEdvKMZ7QEuLCPY-48" style="edgeStyle=orthogonalEdgeStyle;rounded=0;orthogonalLoop=1;jettySize=auto;html=1;exitX=1;exitY=0.5;exitDx=0;exitDy=0;entryX=0;entryY=0.5;entryDx=0;entryDy=0;fillColor=#e51400;strokeColor=#B20000;" edge="1" parent="1" source="_MMB3oEdvKMZ7QEuLCPY-17" target="_MMB3oEdvKMZ7QEuLCPY-47">
          <mxGeometry relative="1" as="geometry" />
        </mxCell>
        <mxCell id="_MMB3oEdvKMZ7QEuLCPY-17" value="活动插件" style="rounded=0;whiteSpace=wrap;html=1;dashed=1;dashPattern=8 8;fillColor=none;opacity=60;" vertex="1" parent="1">
          <mxGeometry x="225" y="159" width="75" height="30" as="geometry" />
        </mxCell>
        <mxCell id="_MMB3oEdvKMZ7QEuLCPY-49" style="edgeStyle=orthogonalEdgeStyle;rounded=0;orthogonalLoop=1;jettySize=auto;html=1;exitX=1;exitY=0.5;exitDx=0;exitDy=0;entryX=0;entryY=0.5;entryDx=0;entryDy=0;entryPerimeter=0;fillColor=#e51400;strokeColor=#B20000;" edge="1" parent="1" source="_MMB3oEdvKMZ7QEuLCPY-47" target="_MMB3oEdvKMZ7QEuLCPY-14">
          <mxGeometry relative="1" as="geometry">
            <Array as="points">
              <mxPoint x="390" y="174" />
              <mxPoint x="390" y="120" />
            </Array>
          </mxGeometry>
        </mxCell>
        <mxCell id="_MMB3oEdvKMZ7QEuLCPY-47" value="线上数据写入" style="rounded=0;whiteSpace=wrap;html=1;dashed=1;dashPattern=8 8;fillColor=none;opacity=60;" vertex="1" parent="1">
          <mxGeometry x="316" y="159" width="60" height="30" as="geometry" />
        </mxCell>
        <mxCell id="_MMB3oEdvKMZ7QEuLCPY-51" value="赤兔" style="text;html=1;strokeColor=none;fillColor=none;align=center;verticalAlign=middle;whiteSpace=wrap;rounded=0;" vertex="1" parent="1">
          <mxGeometry x="116" y="34" width="60" height="30" as="geometry" />
        </mxCell>
        <mxCell id="_MMB3oEdvKMZ7QEuLCPY-52" value="aps" style="text;html=1;strokeColor=none;fillColor=none;align=center;verticalAlign=middle;whiteSpace=wrap;rounded=0;" vertex="1" parent="1">
          <mxGeometry x="630" y="34" width="60" height="30" as="geometry" />
        </mxCell>
        <mxCell id="_MMB3oEdvKMZ7QEuLCPY-53" value="brick" style="text;html=1;strokeColor=none;fillColor=none;align=center;verticalAlign=middle;whiteSpace=wrap;rounded=0;" vertex="1" parent="1">
          <mxGeometry x="350" y="258" width="60" height="30" as="geometry" />
        </mxCell>
        <mxCell id="_MMB3oEdvKMZ7QEuLCPY-54" value="lego" style="text;html=1;strokeColor=none;fillColor=none;align=center;verticalAlign=middle;whiteSpace=wrap;rounded=0;" vertex="1" parent="1">
          <mxGeometry x="630" y="375" width="60" height="30" as="geometry" />
        </mxCell>
      </root>
    </mxGraphModel>
  </diagram>
</mxfile>
